<?xml version="1.0" encoding="UTF-8"?>
<svg width="20px" height="20px" viewBox="0 0 20 20" version="1.1" xmlns="http://www.w3.org/2000/svg" xmlns:xlink="http://www.w3.org/1999/xlink">
    <!-- Generator: Sketch 54 (76480) - https://sketchapp.com -->
    <title>Add</title>
    <desc>Created with Sketch.</desc>
    <defs>
        <path d="M10.6060606,6.36363636 L9.39393939,6.36363636 L9.39393939,9.39393939 L6.36363636,9.39393939 L6.36363636,10.6060606 L9.39393939,10.6060606 L9.39393939,13.6363636 L10.6060606,13.6363636 L10.6060606,10.6060606 L13.6363636,10.6060606 L13.6363636,9.39393939 L10.6060606,9.39393939 L10.6060606,6.36363636 Z M10,18.4848485 C5.32242424,18.4848485 1.51515152,14.6787879 1.51515152,10 C1.51515152,5.32121212 5.32242424,1.51515152 10,1.51515152 C14.6775758,1.51515152 18.4848485,5.32121212 18.4848485,10 C18.4848485,14.6787879 14.6775758,18.4848485 10,18.4848485 M10,0.303030303 C4.64484848,0.303030303 0.303030303,4.64484848 0.303030303,10 C0.303030303,15.3551515 4.64484848,19.6969697 10,19.6969697 C15.3551515,19.6969697 19.6969697,15.3551515 19.6969697,10 C19.6969697,4.64484848 15.3551515,0.303030303 10,0.303030303" id="path-1"></path>
    </defs>
    <g id="Gateway" stroke="none" stroke-width="1" fill="none" fill-rule="evenodd">
        <g id="Gateway-no-connector" transform="translate(-1688.000000, -360.000000)">
            <g id="编组-7" transform="translate(1688.000000, 360.000000)">
                <g id="Add">
                    <mask id="mask-2" fill="white">
                        <use xlink:href="#path-1"></use>
                    </mask>
                    <use id="Mask" fill="#1274B7" xlink:href="#path-1"></use>
                </g>
            </g>
        </g>
    </g>
</svg>