<?xml version="1.0" encoding="UTF-8"?>
<svg width="22px" height="22px" viewBox="0 0 22 22" version="1.1" xmlns="http://www.w3.org/2000/svg" xmlns:xlink="http://www.w3.org/1999/xlink">
    <!-- Generator: Sketch 54 (76480) - https://sketchapp.com -->
    <title>Add</title>
    <desc>Created with Sketch.</desc>
    <defs>
        <path d="M11.6666667,7 L10.3333333,7 L10.3333333,10.3333333 L7,10.3333333 L7,11.6666667 L10.3333333,11.6666667 L10.3333333,15 L11.6666667,15 L11.6666667,11.6666667 L15,11.6666667 L15,10.3333333 L11.6666667,10.3333333 L11.6666667,7 Z M11,20.3333333 C5.85466667,20.3333333 1.66666667,16.1466667 1.66666667,11 C1.66666667,5.85333333 5.85466667,1.66666667 11,1.66666667 C16.1453333,1.66666667 20.3333333,5.85333333 20.3333333,11 C20.3333333,16.1466667 16.1453333,20.3333333 11,20.3333333 M11,0.333333333 C5.10933333,0.333333333 0.333333333,5.10933333 0.333333333,11 C0.333333333,16.8906667 5.10933333,21.6666667 11,21.6666667 C16.8906667,21.6666667 21.6666667,16.8906667 21.6666667,11 C21.6666667,5.10933333 16.8906667,0.333333333 11,0.333333333" id="path-1"></path>
    </defs>
    <g id="role" stroke="none" stroke-width="1" fill="none" fill-rule="evenodd">
        <g id="Role-management-01-0619" transform="translate(-456.000000, -185.000000)">
            <g id="Add" transform="translate(456.000000, 185.000000)">
                <mask id="mask-2" fill="white">
                    <use xlink:href="#path-1"></use>
                </mask>
                <use id="Mask" fill="#707070" xlink:href="#path-1"></use>
            </g>
        </g>
    </g>
</svg>