<?xml version="1.0" encoding="UTF-8"?>
<svg width="24px" height="24px" viewBox="0 0 24 24" version="1.1" xmlns="http://www.w3.org/2000/svg" xmlns:xlink="http://www.w3.org/1999/xlink">
    <!-- Generator: Sketch 59.1 (86144) - https://sketch.com -->
    <title>low2</title>
    <desc>Created with Sketch.</desc>
    <g id="APP" stroke="none" stroke-width="1" fill="none" fill-rule="evenodd">
        <path d="M13.015689,5.43994449 C13.3074387,5.61196014 13.5507266,5.85524806 13.7227423,6.14699773 L20.2597663,17.2342133 C20.8207698,18.1857115 20.5042113,19.4118364 19.552713,19.9728399 C19.2449507,20.1542966 18.8941996,20.25 18.5369263,20.25 L5.46287833,20.25 C4.35830883,20.25 3.46287833,19.3545695 3.46287833,18.25 C3.46287833,17.8927267 3.5585817,17.5419756 3.74003841,17.2342133 L10.2770624,6.14699773 C10.8380659,5.19549951 12.0641908,4.87894099 13.015689,5.43994449 Z M12.5735008,12.3543245 L11.4263039,12.3543245 L10.9244053,16.795642 L13.0753994,16.795642 L12.5735008,12.3543245 Z M12.0238023,9.65252308 C11.5486178,9.65252308 11.1634047,10.0502122 11.1634047,10.5407866 C11.1634047,11.031361 11.5486178,11.4290501 12.0238023,11.4290501 C12.4989868,11.4290501 12.8841999,11.031361 12.8841999,10.5407866 C12.8841999,10.0502122 12.4989868,9.65252308 12.0238023,9.65252308 Z" id="low2" fill="#1AD6DC" transform="translate(12.000000, 12.375000) scale(1, -1) translate(-12.000000, -12.375000) "></path>
    </g>
</svg>