<?xml version="1.0" encoding="UTF-8"?>
<svg width="26px" height="28px" viewBox="0 0 26 28" version="1.1" xmlns="http://www.w3.org/2000/svg" xmlns:xlink="http://www.w3.org/1999/xlink">
    <!-- Generator: Sketch 59.1 (86144) - https://sketch.com -->
    <title>alarm summary</title>
    <desc>Created with Sketch.</desc>
    <defs>
        <path d="M21.1577625,31.39675 C20.0118172,30.23825 19.3807671,28.70175 19.3807671,27.0655 C19.3807671,25.4275 20.0118172,23.891 21.1577625,22.7325 C22.3054416,21.5775 23.8275899,20.9405 25.4485565,20.9405 C27.0712567,20.9405 28.593405,21.5775 29.7410841,22.7325 C30.8870294,23.891 31.5163459,25.4275 31.5163459,27.0655 C31.5163459,28.70175 30.8870294,30.23825 29.7410841,31.39675 C28.593405,32.5535 27.0712567,33.1905 25.4485565,33.1905 C23.8275899,33.1905 22.3054416,32.5535 21.1577625,31.39675 Z M10.4836541,8.75 L19.25035,8.75 L19.25035,17.5743766 L28.0074299,17.5743766 L28.0074299,19.6638766 C27.2498231,19.4258766 26.4731461,19.2718766 25.6878007,19.2718766 C23.6923648,19.2718766 21.455951,19.95875 19.9320691,21.49525 C16.8860388,24.57175 16.8860388,29.55925 19.9320691,32.634 C20.1643787,32.86675 20.4261605,33.04875 20.6758067,33.2465 L10.4836541,33.24125 L10.4836541,8.75 Z M21.00035,10.6951266 L26.3344537,15.8243766 L21.00035,15.8243766 L21.00035,10.6951266 Z M29.7410841,20.4408766 L29.7410841,16.7431266 L21.00035,7 L8.75,7 L8.75,35.000175 L26.9065596,35.000175 C28.3923012,34.716675 29.8156312,33.796 30.9667775,32.634 C34.0110742,29.55925 34.0110742,24.57175 30.9667775,21.49525 C30.5177611,21.0455 30.2594466,20.7611266 29.7410841,20.4408766 Z M24.7164343,29.605275 L26.2212461,29.605275 C25.9507961,30.181025 25.6214018,30.181025 25.4740412,30.181025 C25.2209277,30.181025 24.943543,30.125025 24.7164343,29.605275 Z M23.3589832,25.813025 C23.3589832,25.008025 24.1287256,24.215275 25.0735671,24.042025 C25.7618278,23.916025 26.4778269,24.101525 26.9909885,24.532025 C27.3879953,24.869775 27.6064357,25.309025 27.6064357,25.769275 L27.6064357,27.314525 L27.8699512,28.292775 L23.0659956,28.292775 L23.3607168,27.424775 L23.3589832,25.813025 Z M28.9066763,27.220025 L28.9066763,25.769275 C28.9066763,24.925775 28.5131369,24.108525 27.8231425,23.525775 C27.0221943,22.848525 25.9143893,22.554525 24.8429911,22.750525 C23.2566976,23.039275 22.0587426,24.355275 22.0587426,25.813025 L22.0604762,27.206025 L21.2456588,29.605275 L23.3381793,29.605275 C23.5566197,30.375275 24.0732487,31.493525 25.4740412,31.493525 C26.2073769,31.493525 27.1331482,31.140025 27.5977675,29.605275 L29.6174745,29.605275 L28.9066763,27.220025 Z" id="path-1"></path>
    </defs>
    <g id="realtime-position" stroke="none" stroke-width="1" fill="none" fill-rule="evenodd">
        <g id="position-display6" transform="translate(-27.000000, -597.000000)">
            <g id="Document-/-Alarm-/-16px-" transform="translate(19.000000, 590.000000)">
                <mask id="mask-2" fill="white">
                    <use xlink:href="#path-1"></use>
                </mask>
                <use id="Mask" fill="#303030" fill-rule="evenodd" xlink:href="#path-1"></use>
                <g id="*Style*-/-Icon-/-Tint-/-Actionable---Dark-Background-/-Interactive" mask="url(#mask-2)" fill="#FFFFFF" fill-rule="evenodd">
                    <rect id="Light-Theme" x="0" y="0" width="42" height="42"></rect>
                </g>
            </g>
        </g>
    </g>
</svg>