<?xml version="1.0" encoding="UTF-8"?>
<svg width="16px" height="20px" viewBox="0 0 16 20" version="1.1" xmlns="http://www.w3.org/2000/svg" xmlns:xlink="http://www.w3.org/1999/xlink">
    <!-- Generator: Sketch 59.1 (86144) - https://sketch.com -->
    <title>编组 15</title>
    <desc>Created with Sketch.</desc>
    <defs>
        <path d="M8.15279168,14.0513487 L8.15279168,14.7913803 L5.18982872,14.7913803 L5.18982872,14.0513487 L8.15279168,14.0513487 Z M3.70702051,14.0513487 L3.70702051,14.7913803 L2.22421231,14.7913803 L2.22421231,14.0513487 L3.70702051,14.0513487 Z M8.15876193,11.0904825 L8.15876193,11.8312541 L5.18982872,11.8312541 L5.18982872,11.0904825 L8.15876193,11.0904825 Z M3.70702051,11.0904825 L3.70702051,11.8312541 L2.22421231,11.8312541 L2.22421231,11.0904825 L3.70702051,11.0904825 Z M11.8624656,8.13109638 L11.8624656,8.87112792 L5.18982872,8.87112792 L5.18982872,8.13109638 L11.8624656,8.13109638 Z M3.70702051,8.13109638 L3.70702051,8.87112792 L2.22421231,8.87112792 L2.22421231,8.13109638 L3.70702051,8.13109638 Z M0,-0.000222222222 L0,17.7686752 L8.48151953,17.7740268 L8.48151953,10.6290094 L14.0740741,10.6290094 L14.0740741,5.92025214 L8.15544513,-0.000222222222 L0,-0.000222222222 Z M0.741404102,17.0286436 L0.741404102,0.739809322 L7.41404102,0.739809322 L7.41404102,6.66028368 L13.3319286,6.66028368 L13.3319286,10.6268989 L8.47811908,10.6268989 L8.47811908,17.0286436 L0.741404102,17.0286436 Z M8.15544513,1.27485213 L12.8092387,5.92025214 L8.15544513,5.92025214 L8.15544513,1.27485213 Z" id="path-1"></path>
    </defs>
    <g id="报警总览" stroke="none" stroke-width="1" fill="none" fill-rule="evenodd">
        <g id="alarm-summary1" transform="translate(-1725.000000, -91.000000)">
            <g id="编组-15" transform="translate(1720.000000, 88.000000)">
                <rect id="矩形" x="0" y="0" width="24" height="24"></rect>
                <g id="Document-/-Report-/-24px" transform="translate(5.000000, 3.000000)">
                    <mask id="mask-2" fill="white">
                        <use xlink:href="#path-1"></use>
                    </mask>
                    <use id="Mask" fill="#303030" xlink:href="#path-1"></use>
                    <path d="M11.1805556,16.2268519 L11.1805556,16.5740741 L10.4861111,16.5740741 L10.4861111,16.2268519 L11.1805556,16.2268519 Z M15,16.2268519 L15,16.5740741 L11.5277778,16.5740741 L11.5277778,16.2268519 L15,16.2268519 Z M12.9166667,17.962963 L13.6111111,17.962963 C13.6111111,18.7300251 12.9892844,19.3518519 12.2222222,19.3518519 C11.4551601,19.3518519 10.8333333,18.7300251 10.8333333,17.962963 L11.5277778,17.962963 C11.5277778,18.346494 11.8386911,18.6574074 12.2222222,18.6574074 C12.6057533,18.6574074 12.9166667,18.346494 12.9166667,17.962963 Z M12.2222222,12.4074074 C10.8798635,12.4074074 9.79166667,13.4956042 9.79166667,14.837963 L9.79166667,17.6157407 L14.6527778,17.6157407 L14.6527778,14.837963 C14.6527778,13.4956042 13.564581,12.4074074 12.2222222,12.4074074 Z M12.8235428,18.3105644 L11.6209016,18.3105644 C11.7410282,18.5179252 11.9653363,18.6574074 12.2222222,18.6574074 C12.4791081,18.6574074 12.7034162,18.5179252 12.8235428,18.3105644 Z M11.5324927,11.7893332 L11.5277778,11.712963 C11.5277778,11.3294319 11.8386911,11.0185185 12.2222222,11.0185185 C12.6057533,11.0185185 12.9166667,11.3294319 12.9166667,11.712963 C12.9166667,11.7388037 12.9152553,11.7643148 12.9125054,11.7894234 C14.3059783,12.1033735 15.3472222,13.3490704 15.3472222,14.837963 L15.3472222,18.3101852 L13.5673052,18.3103787 C13.4130564,18.9093177 12.869319,19.3518519 12.2222222,19.3518519 C11.5751254,19.3518519 11.031388,18.9093177 10.8771392,18.3103787 L9.09722222,18.3101852 L9.09722222,14.837963 C9.09722222,13.3490704 10.1384661,12.1033735 11.5324927,11.7893332 Z" id="Mask" fill="#303030" fill-rule="nonzero"></path>
                </g>
            </g>
        </g>
    </g>
</svg>