<?xml version="1.0" encoding="UTF-8"?>
<svg width="24px" height="24px" viewBox="0 0 24 24" version="1.1" xmlns="http://www.w3.org/2000/svg" xmlns:xlink="http://www.w3.org/1999/xlink">
    <!-- Generator: Sketch 59.1 (86144) - https://sketch.com -->
    <title>high2</title>
    <desc>Created with Sketch.</desc>
    <g id="APP" stroke="none" stroke-width="1" fill="none" fill-rule="evenodd">
        <path d="M13.0200187,4.80989993 C13.3083997,4.98090965 13.5491626,5.2216726 13.7201724,5.5100536 L20.3735197,16.7298775 C20.9369178,17.6799598 20.6234483,18.9068781 19.673366,19.4702762 C19.3645914,19.6533793 19.0122261,19.75 18.6532435,19.75 L5.3465489,19.75 C4.2419794,19.75 3.3465489,18.8545695 3.3465489,17.75 C3.3465489,17.3910174 3.44316964,17.0386521 3.62627274,16.7298775 L10.27962,5.5100536 C10.8430181,4.55997131 12.0699364,4.24650183 13.0200187,4.80989993 Z M11.9998962,15.2784552 C11.5187195,15.2784552 11.1286487,15.678851 11.1286487,16.1727642 C11.1286487,16.6666774 11.5187195,17.0670731 11.9998962,17.0670731 C12.4810729,17.0670731 12.8711437,16.6666774 12.8711437,16.1727642 C12.8711437,15.678851 12.4810729,15.2784552 11.9998962,15.2784552 Z M13.0889555,10.061653 L10.9108369,10.061653 L11.4190645,14.5331978 L12.5807278,14.5331978 L13.0889555,10.061653 Z" id="high2" fill="#F7B500"></path>
    </g>
</svg>