<?xml version="1.0" encoding="UTF-8"?>
<svg width="14px" height="18px" viewBox="0 0 14 18" version="1.1" xmlns="http://www.w3.org/2000/svg" xmlns:xlink="http://www.w3.org/1999/xlink">
    <!-- Generator: Sketch 59.1 (86144) - https://sketch.com -->
    <title>编组 6</title>
    <desc>Created with Sketch.</desc>
    <defs>
        <path d="M4.5,11.25 L4.5,12 L3,12 L3,11.25 L4.5,11.25 Z M12.75,11.25 L12.75,12 L5.25,12 L5.25,11.25 L12.75,11.25 Z M8.25,15 L9.75,15 C9.75,16.6568542 8.40685425,18 6.75,18 C5.09314575,18 3.75,16.6568542 3.75,15 L5.25,15 C5.25,15.8284271 5.92157288,16.5 6.75,16.5 C7.57842712,16.5 8.25,15.8284271 8.25,15 Z M6.75,3 C3.85050506,3 1.5,5.35050506 1.5,8.25 L1.5,14.25 L12,14.25 L12,8.25 C12,5.35050506 9.64949494,3 6.75,3 Z M8.04850357,15.7514212 L5.45149643,15.7514212 C5.71105516,16.1989883 6.19537506,16.5 6.75,16.5 C7.30462494,16.5 7.78894484,16.1989883 8.04850357,15.7514212 Z M5.1389559,1.6934549 L5.25904366,1.66565818 C5.25306752,1.61126118 5.25,1.55598882 5.25,1.5 C5.25,0.671572875 5.92157288,0 6.75,0 C7.57842712,0 8.25,0.671572875 8.25,1.5 C8.25,1.55598882 8.24693248,1.61126118 8.24095634,1.66565818 C11.2512915,2.34373927 13.5,5.03426263 13.5,8.25 L13.5,15.75 L9.65516499,15.7512495 C9.32169851,17.0445359 8.14742955,18 6.75,18 C5.35257045,18 4.17830149,17.0445359 3.84483501,15.7512495 L0,15.75 L0,8.25 C0,5.07730037 2.18892019,2.41585045 5.1389559,1.6934549 Z" id="path-1"></path>
    </defs>
    <g id="报警总览" stroke="none" stroke-width="1" fill="none" fill-rule="evenodd">
        <g id="alarm-summary1" transform="translate(-1690.000000, -279.000000)">
            <g id="编组-6" transform="translate(1685.000000, 276.000000)">
                <g id="Icon-/-Alerts">
                    <g id="Shape" transform="translate(5.250000, 3.000000)">
                        <mask id="mask-2" fill="white">
                            <use xlink:href="#path-1"></use>
                        </mask>
                        <use id="Mask" fill="#B0B0B0" fill-rule="nonzero" xlink:href="#path-1"></use>
                        <g id="Icon-/-Tint-/-Non-Interactive" mask="url(#mask-2)">
                            <g transform="translate(-5.250000, -3.000000)" id="*Style*-/-Color-/-Action-/-Disabled">
                                <g>
                                    <rect id="Light-Theme" fill="#A0A0A0" x="0" y="0" width="26" height="26"></rect>
                                </g>
                            </g>
                        </g>
                    </g>
                </g>
            </g>
        </g>
    </g>
</svg>