<?xml version="1.0" encoding="UTF-8"?>
<svg width="22px" height="28px" viewBox="0 0 22 28" version="1.1" xmlns="http://www.w3.org/2000/svg" xmlns:xlink="http://www.w3.org/1999/xlink">
    <!-- Generator: Sketch 54 (76480) - https://sketchapp.com -->
    <title>Icon 5</title>
    <desc>Created with Sketch.</desc>
    <defs>
        <path d="M5.375,18.5 L5.375,17.375 L7.625,17.375 L7.625,18.5 L5.375,18.5 Z M20,17.375 L20,18.5 L8.75,18.5 L8.75,17.375 L20,17.375 Z M13.25,23 L15.5,23 C15.5,25.4852814 13.4852814,27.5 11,27.5 C8.51471863,27.5 6.5,25.4852814 6.5,23 L8.75,23 C8.75,24.2426407 9.75735931,25.25 11,25.25 C12.2426407,25.25 13.25,24.2426407 13.25,23 Z M21.125,12.875 L21.125,24.125 L15.3582303,24.125 C14.8586822,26.0658806 13.0968194,27.5 11,27.5 C8.90318064,27.5 7.14131781,26.0658806 6.64176967,24.125 L0.875,24.125 L0.875,12.875 C0.875,8.05162252 4.24774304,4.01599139 8.7634946,2.99784115 C8.75457702,2.91645409 8.75,2.83376156 8.75,2.75 C8.75,1.50735931 9.75735931,0.5 11,0.5 C12.2426407,0.5 13.25,1.50735931 13.25,2.75 C13.25,2.83376156 13.245423,2.91645409 13.2365054,2.99784115 C17.752257,4.01599139 21.125,8.05162252 21.125,12.875 Z M18.875,12.875 C18.875,8.5257576 15.3492424,5 11,5 C6.6507576,5 3.125,8.5257576 3.125,12.875 L18.875,12.875 Z M9.05100994,24.125 C9.44004554,24.7975265 10.1671823,25.25 11,25.25 C11.8328177,25.25 12.5599545,24.7975265 12.9489901,24.125 L9.05100994,24.125 Z M3.125,12.875 L3.125,21.875 L18.875,21.875 L18.875,12.875 L3.125,12.875 Z" id="path-1"></path>
    </defs>
    <g id="页面1" stroke="none" stroke-width="1" fill="none" fill-rule="evenodd">
        <g id="Frame-Expand-1" transform="translate(-29.000000, -340.000000)">
            <g id="Icon-5" transform="translate(29.000000, 340.000000)">
                <mask id="mask-2" fill="white">
                    <use xlink:href="#path-1"></use>
                </mask>
                <use id="Mask" fill="#FFFFFF" fill-rule="nonzero" xlink:href="#path-1"></use>
            </g>
        </g>
    </g>
</svg>