<?xml version="1.0" encoding="UTF-8"?>
<svg width="24px" height="24px" viewBox="0 0 24 24" version="1.1" xmlns="http://www.w3.org/2000/svg" xmlns:xlink="http://www.w3.org/1999/xlink">
    <!-- Generator: Sketch 59.1 (86144) - https://sketch.com -->
    <title>urgent1</title>
    <desc>Created with Sketch.</desc>
    <g id="APP" stroke="none" stroke-width="1" fill="none" fill-rule="evenodd">
        <g id="urgent1" transform="translate(3.500000, 3.500000)" fill="#DE2929">
            <g id="编组-16">
                <path d="M13,0 C15.209139,-4.05812251e-16 17,1.790861 17,4 L17,13 C17,15.209139 15.209139,17 13,17 L4,17 C1.790861,17 2.705415e-16,15.209139 0,13 L0,4 C-2.705415e-16,1.790861 1.790861,4.05812251e-16 4,0 L13,0 Z M13.3,1.7 L3.7,1.7 C2.5954305,1.7 1.7,2.5954305 1.7,3.7 L1.7,3.7 L1.7,13.3 C1.7,14.4045695 2.5954305,15.3 3.7,15.3 L3.7,15.3 L13.3,15.3 C14.4045695,15.3 15.3,14.4045695 15.3,13.3 L15.3,13.3 L15.3,3.7 C15.3,2.5954305 14.4045695,1.7 13.3,1.7 L13.3,1.7 Z" id="形状结合"></path>
                <g id="编组-15" transform="translate(7.225000, 4.675000)">
                    <circle id="椭圆形" cx="1.21698413" cy="6.63809524" r="1"></circle>
                    <polygon id="矩形" points="-8.52651283e-14 5.18696197e-13 2.55 5.18696197e-13 1.86190476 4.85714286 0.566666667 4.85714286"></polygon>
                </g>
            </g>
        </g>
    </g>
</svg>