<?xml version="1.0" encoding="UTF-8"?>
<svg width="24px" height="24px" viewBox="0 0 24 24" version="1.1" xmlns="http://www.w3.org/2000/svg" xmlns:xlink="http://www.w3.org/1999/xlink">
    <!-- Generator: Sketch 59.1 (86144) - https://sketch.com -->
    <title>high1</title>
    <desc>Created with Sketch.</desc>
    <g id="APP" stroke="none" stroke-width="1" fill="none" fill-rule="evenodd">
        <g id="high1" transform="translate(3.000000, 4.000000)" fill="#F7B500">
            <path d="M10.0199563,0.802483502 C10.3083851,0.973507614 10.5491838,1.21430639 10.7202079,1.50273517 L17.3773889,12.729939 C17.940753,13.6800415 17.6272397,14.9069485 16.6771372,15.4703126 C16.368377,15.6533923 16.0160345,15.75 15.6570762,15.75 L2.34271437,15.75 C1.23814487,15.75 0.342714366,14.8545695 0.342714366,13.75 C0.342714366,13.3910417 0.439322047,13.0386993 0.62240172,12.729939 L7.27958266,1.50273517 C7.84294678,0.55263273 9.06985384,0.23911938 10.0199563,0.802483502 Z M8.9998953,2.08087547 L1.79739088,14.0413594 L16.2023997,14.0413594 L8.9998953,2.08087547 Z" id="形状结合"></path>
            <g id="编组" transform="translate(7.708870, 5.908453)">
                <ellipse id="椭圆形" cx="1.31020408" cy="5.96962769" rx="1" ry="1"></ellipse>
                <polygon id="矩形" points="0.214285714 1.92734717e-13 2.41836735 1.92734717e-13 1.90408163 4.36802026 0.728571429 4.36802026"></polygon>
            </g>
        </g>
    </g>
</svg>