<?xml version="1.0" encoding="UTF-8"?>
<svg width="16px" height="19px" viewBox="0 0 16 19" version="1.1" xmlns="http://www.w3.org/2000/svg" xmlns:xlink="http://www.w3.org/1999/xlink">
    <!-- Generator: Sketch 59.1 (86144) - https://sketch.com -->
    <title>编组 14</title>
    <desc>Created with Sketch.</desc>
    <defs>
        <linearGradient x1="50%" y1="0%" x2="50%" y2="100%" id="linearGradient-1">
            <stop stop-color="#FF0000" offset="0%"></stop>
            <stop stop-color="#9F041B" offset="100%"></stop>
        </linearGradient>
        <linearGradient x1="50%" y1="0%" x2="50%" y2="100%" id="linearGradient-2">
            <stop stop-color="#FF0000" offset="0%"></stop>
            <stop stop-color="#9F041B" offset="100%"></stop>
        </linearGradient>
    </defs>
    <g id="notification" stroke="none" stroke-width="1" fill="none" fill-rule="evenodd">
        <g id="notification1" transform="translate(-1421.000000, -382.000000)">
            <g id="编组-14" transform="translate(1421.000000, 382.000000)">
                <path d="M8,17.0666667 C12.6222222,13.4244805 14.9333333,10.3537734 14.9333333,7.85454545 C14.9333333,4.10570352 11.8291743,1.06666667 8,1.06666667 C4.17082573,1.06666667 1.06666667,4.10570352 1.06666667,7.85454545 C1.06666667,10.3537734 3.37777778,13.4244805 8,17.0666667 Z" id="椭圆形" fill="url(#linearGradient-1)"></path>
                <path d="M8,18.6666667 C13.3333333,14.4174495 16,10.8349579 16,7.91919192 C16,3.54554299 12.418278,0 8,0 C3.581722,0 0,3.54554299 0,7.91919192 C0,10.8349579 2.66666667,14.4174495 8,18.6666667 Z" id="椭圆形" fill-opacity="0.4" fill="url(#linearGradient-2)"></path>
                <circle id="椭圆形" fill="#FFFFFF" cx="8.26666667" cy="7.73333333" r="5.6"></circle>
                <g id="编组-3" transform="translate(4.800000, 3.733333)"></g>
                <path d="M11.2,9.6 L9.9546798,9.6 L9.9546798,8.54094933 L9.84326305,8.47172267 C9.83715468,8.46773333 9.22167488,8.07771733 9.22167488,7.488 L9.22167488,5.84533333 C9.22167488,4.976832 8.75352906,4.43733333 8,4.43733333 L8,4.90666667 C8.63771429,4.90666667 8.73300493,5.49474133 8.73300493,5.84533333 L8.73300493,7.488 C8.73300493,8.15140267 9.23609064,8.61134933 9.46600985,8.78688 L9.46600985,9.6 L4.8,9.6 L4.8,8.60078933 C5.46581281,8.45412267 5.82463054,8.01717333 5.82463054,7.018432 L5.82463054,5.729408 C5.82463054,4.47957333 6.77588177,3.73333333 8,3.73333333 C9.22411823,3.73333333 10.1753695,4.47957333 10.1753695,5.729408 L10.1753695,7.018432 C10.1753695,8.01717333 10.5341872,8.45412267 11.2,8.60078933 L11.2,9.6 Z" id="路径" fill="#F10000"></path>
                <path d="M8,11.2 C7.00010304,11.2 6.53560021,10.6819556 6.4,10.1333333 L9.6,10.1333333 C9.46439979,10.6819556 8.99989696,11.2 8,11.2 L8,11.2 Z" id="路径" fill="#F10000"></path>
            </g>
        </g>
    </g>
</svg>