<?xml version="1.0" encoding="UTF-8"?>
<svg width="24px" height="24px" viewBox="0 0 24 24" version="1.1" xmlns="http://www.w3.org/2000/svg" xmlns:xlink="http://www.w3.org/1999/xlink">
    <!-- Generator: Sketch 59.1 (86144) - https://sketch.com -->
    <title>urgent2</title>
    <desc>Created with Sketch.</desc>
    <g id="APP" stroke="none" stroke-width="1" fill="none" fill-rule="evenodd">
        <g id="urgent2" transform="translate(3.500000, 3.500000)" fill="#DE2929">
            <g id="编组-14">
                <path d="M13,0 C15.209139,-4.05812251e-16 17,1.790861 17,4 L17,13 C17,15.209139 15.209139,17 13,17 L4,17 C1.790861,17 2.705415e-16,15.209139 0,13 L0,4 C-2.705415e-16,1.790861 1.790861,4.05812251e-16 4,0 L13,0 Z M8.49865079,10.3888889 C7.96214561,10.3888889 7.52722222,10.8238123 7.52722222,11.3603175 C7.52722222,11.8968226 7.96214561,12.331746 8.49865079,12.331746 C9.03515598,12.331746 9.47007937,11.8968226 9.47007937,11.3603175 C9.47007937,10.8238123 9.03515598,10.3888889 8.49865079,10.3888889 Z M9.7102381,4.72222222 L7.28166667,4.72222222 L7.84833333,9.57936508 L9.14357143,9.57936508 L9.7102381,4.72222222 Z" id="形状结合"></path>
            </g>
        </g>
    </g>
</svg>