<?xml version="1.0" encoding="UTF-8"?>
<svg width="11px" height="12px" viewBox="0 0 11 12" version="1.1" xmlns="http://www.w3.org/2000/svg" xmlns:xlink="http://www.w3.org/1999/xlink">
    <!-- Generator: Sketch 59.1 (86144) - https://sketch.com -->
    <title>URL</title>
    <desc>Created with Sketch.</desc>
    <defs>
        <polygon id="path-1" points="6 1.13807119 0.902368927 6.23570226 0.430964406 5.76429774 6 0.195262146 11.5690356 5.76429774 11.0976311 6.23570226"></polygon>
        <polygon id="path-3" points="6 1.13807119 0.902368927 6.23570226 0.430964406 5.76429774 6 0.195262146 11.5690356 5.76429774 11.0976311 6.23570226"></polygon>
    </defs>
    <g id="notification" stroke="none" stroke-width="1" fill="none" fill-rule="evenodd">
        <g id="alarm2" transform="translate(-1883.000000, -210.000000)">
            <g id="Icon-/-Caret-/-Right-/-Double-/-16px" transform="translate(1880.000000, 208.000000)">
                <g id="Shape" transform="translate(6.000000, 8.000000) scale(-1, 1) rotate(-90.000000) translate(-6.000000, -8.000000) translate(0.000000, 4.666667)">
                    <g id="Tint">
                        <mask id="mask-2" fill="white">
                            <use xlink:href="#path-1"></use>
                        </mask>
                        <use id="Mask" fill="#979797" fill-rule="nonzero" transform="translate(6.000000, 3.215482) scale(1, -1) rotate(-180.000000) translate(-6.000000, -3.215482) " xlink:href="#path-1"></use>
                        <g id="Icon-/-Tint-/-Actionable---Dark-Background-/-Interactive" mask="url(#mask-2)" fill="#FFFFFF">
                            <g transform="translate(-5.333333, -8.000000)" id="Light-Theme">
                                <rect x="0" y="0" width="23" height="23"></rect>
                            </g>
                        </g>
                    </g>
                </g>
                <g id="Shape-Copy" transform="translate(10.000000, 8.000000) scale(-1, 1) rotate(-90.000000) translate(-10.000000, -8.000000) translate(4.000000, 4.666667)">
                    <g id="Tint">
                        <mask id="mask-4" fill="white">
                            <use xlink:href="#path-3"></use>
                        </mask>
                        <use id="Mask" fill="#979797" fill-rule="nonzero" transform="translate(6.000000, 3.215482) scale(1, -1) rotate(-180.000000) translate(-6.000000, -3.215482) " xlink:href="#path-3"></use>
                        <g id="Icon-/-Tint-/-Actionable---Dark-Background-/-Interactive" mask="url(#mask-4)" fill="#FFFFFF">
                            <g transform="translate(-5.333333, -8.000000)" id="Light-Theme">
                                <rect x="0" y="0" width="23" height="23"></rect>
                            </g>
                        </g>
                    </g>
                </g>
            </g>
        </g>
    </g>
</svg>