<?xml version="1.0" encoding="UTF-8"?>
<svg width="22px" height="27px" viewBox="0 0 22 27" version="1.1" xmlns="http://www.w3.org/2000/svg" xmlns:xlink="http://www.w3.org/1999/xlink">
    <!-- Generator: Sketch 54 (76480) - https://sketchapp.com -->
    <title>Role management 01-0619</title>
    <desc>Created with Sketch.</desc>
    <defs>
        <path d="M7.00626877,11.9760227 L7.00626877,10.9769801 L16.0143286,10.9769801 L16.0143286,11.9760227 L7.00626877,11.9760227 Z M7.00626877,15.972193 L7.00626877,14.9721514 L16.0143286,14.9721514 L16.0143286,15.972193 L7.00626877,15.972193 Z M7.00626877,19.9683634 L7.00626877,18.9693208 L11.0062688,18.9693208 L11.0062688,19.9683634 L7.00626877,19.9683634 Z M3.00268661,19.9683634 L3.00268661,18.9693208 L5.00447769,18.9693208 L5.00447769,19.9683634 L3.00268661,19.9683634 Z M3.00268661,15.972193 L3.00268661,14.9721514 L5.00447769,14.9721514 L5.00447769,15.972193 L3.00268661,15.972193 Z M3.00268661,11.9760227 L3.00268661,10.9769801 L5.00447769,10.9769801 L5.00447769,11.9760227 L3.00268661,11.9760227 Z M0,-0.0003 L0,23.9877115 L11.4500514,23.9949362 L11.4500514,16.3491626 L19,16.3491626 L19,7.99234039 L11.0098509,-0.0003 L0,-0.0003 Z M1.00089554,22.9886689 L1.00089554,0.998742584 L10.0089554,0.998742584 L10.0089554,8.99138297 L17.9981036,8.99138297 L17.9981036,16.3463135 L11.4454608,16.3463135 L11.4454608,22.9886689 L1.00089554,22.9886689 Z M11.0098509,1.72105037 L17.2924722,7.99234039 L11.0098509,7.99234039 L11.0098509,1.72105037 Z" id="path-1"></path>
    </defs>
    <g id="role" stroke="none" stroke-width="1" fill="none" fill-rule="evenodd">
        <g id="Role-management-01-0619" transform="translate(-1822.000000, -139.000000)">
            <g id="Backlog" transform="translate(1822.000000, 139.000000)">
                <g id="Document-/-Report-/-24px">
                    <mask id="mask-2" fill="white">
                        <use xlink:href="#path-1"></use>
                    </mask>
                    <use id="Mask" fill="#707070" xlink:href="#path-1"></use>
                </g>
                <path d="M17.0935551,19.2262647 L16.6812197,19.2262647 L16.2815893,22.3794179 L19.4589975,23.8664819 L19.6882652,23.5176715 L17.541118,21.6887272 L17.0935551,19.2262647 Z M17,25.985909 C14.8020328,25.985909 13.014091,24.1979672 13.014091,22 C13.014091,19.8020328 14.8020328,18.014091 17,18.014091 C19.1979672,18.014091 20.985909,19.8020328 20.985909,22 C20.985909,24.1979672 19.1979672,25.985909 17,25.985909 L17,25.985909 Z M17,17 C14.2389697,17 12,19.2383922 12,22 C12,24.7610303 14.2389697,27 17,27 C19.7616078,27 22,24.7610303 22,22 C22,19.2383922 19.7616078,17 17,17 L17,17 Z" id="Fill-316" fill="#707070"></path>
            </g>
        </g>
    </g>
</svg>