<?xml version="1.0" encoding="UTF-8"?>
<svg width="148px" height="148px" viewBox="0 0 148 148" version="1.1" xmlns="http://www.w3.org/2000/svg" xmlns:xlink="http://www.w3.org/1999/xlink">
    <!-- Generator: Sketch 59.1 (86144) - https://sketch.com -->
    <title>Content  / Time / 16px</title>
    <desc>Created with Sketch.</desc>
    <defs>
        <path d="M95.74425,46.6521667 L64.6875833,70.403 L64.7700833,77.7455 L85.84425,93.1638333 L91.2525833,85.7755 L75.1284167,73.9596667 L101.308417,53.9396667 L95.74425,46.6521667 Z M74,138.166667 C38.6258333,138.166667 9.83333333,109.374167 9.83333333,74 C9.83333333,38.6258333 38.6258333,9.83333333 74,9.83333333 C109.374167,9.83333333 138.166667,38.6258333 138.166667,74 C138.166667,109.374167 109.374167,138.166667 74,138.166667 M74,0.666666667 C33.5658333,0.666666667 0.666666667,33.5658333 0.666666667,74 C0.666666667,114.434167 33.5658333,147.333333 74,147.333333 C114.434167,147.333333 147.333333,114.434167 147.333333,74 C147.333333,33.5658333 114.434167,0.666666667 74,0.666666667 M78.5833333,119.367667 L78.5833333,111.236833 L69.4166667,111.236833 L69.4166667,119.367667 C47.8475,117.186 30.8158333,100.145167 28.6341667,78.5851667 L37.0766667,78.5851667 L37.0766667,69.4185 L28.6341667,69.4185 C30.8158333,47.8493333 47.8475,30.8085 69.4166667,28.636 L69.4166667,37.1243333 L78.5833333,37.1243333 L78.5833333,28.636 C100.1525,30.8085 117.193333,47.8493333 119.365833,69.4185 L110.529167,69.4185 L110.529167,78.5851667 L119.365833,78.5851667 C117.184167,100.145167 100.1525,117.186 78.5833333,119.367667 M74,19.0018333 C43.6308333,19.0018333 19,43.6235 19,74.0018333 C19,104.371 43.6308333,129.001833 74,129.001833 C104.369167,129.001833 129,104.371 129,74.0018333 C129,43.6235 104.369167,19.0018333 74,19.0018333" id="path-1"></path>
    </defs>
    <g id="notification" stroke="none" stroke-width="1" fill="none" fill-rule="evenodd">
        <g id="notification3" transform="translate(-1582.000000, -225.000000)">
            <g id="Content--/-Time-/-16px" transform="translate(1582.000000, 225.000000)">
                <mask id="mask-2" fill="white">
                    <use xlink:href="#path-1"></use>
                </mask>
                <use id="Mask" fill="#303030" xlink:href="#path-1"></use>
                <g id="Icon-/-Tint-/-Actionable---Light-Background-/-Interactive" mask="url(#mask-2)">
                    <g transform="translate(-36.000000, -36.000000)">
                        <rect id="矩形" fill="#FFFFFF" x="0" y="0" width="220" height="220"></rect>
                        <polygon id="All-Themes" fill="#D0D0D0" points="0 0 220 0 220 220 0 220"></polygon>
                    </g>
                </g>
                <g id="Icon-/-Tint-/-Actionable---Light-Background-/-Interactive" mask="url(#mask-2)">
                    <g transform="translate(-36.000000, -36.000000)">
                        <rect id="矩形" fill="#FFFFFF" x="0" y="0" width="220" height="220"></rect>
                        <polygon id="All-Themes" fill="#D0D0D0" points="0 0 220 0 220 220 0 220"></polygon>
                    </g>
                </g>
            </g>
        </g>
    </g>
</svg>