<?xml version="1.0" encoding="UTF-8"?>
<svg width="24px" height="24px" viewBox="0 0 24 24" version="1.1" xmlns="http://www.w3.org/2000/svg" xmlns:xlink="http://www.w3.org/1999/xlink">
    <!-- Generator: Sketch 54 (76480) - https://sketchapp.com -->
    <title>Group</title>
    <desc>Created with Sketch.</desc>
    <g id="Tank" stroke="none" stroke-width="1" fill="none" fill-rule="evenodd">
        <g id="Tank-management--drop-down" transform="translate(-1687.000000, -80.000000)" fill="#707070" fill-rule="nonzero">
            <g id="Backlog" transform="translate(1687.000000, 80.000000)">
                <g id="Group">
                    <path d="M8.93939242,16.4372344 L9.07835065,16.5598093 L9.34483023,16.7952954 L6.44329075,19.3759788 L5.83656364,19.9156132 L6.36037329,20.3814993 L3.17977364,22.0792371 L2.9996426,21.9190252 L4.90845986,19.0901404 L5.43284135,19.5565351 L6.03956847,19.0169007 L8.93939242,16.4372344 L8.93939242,16.4372344 Z M8.93767688,15.36 L5.43284135,18.4777748 L4.73805017,17.8598146 L1.92,22.0375311 L3.0471057,23.04 L7.74423721,20.5330649 L7.05001787,19.9156132 L10.56,16.7937695 C10.2632127,16.5318358 9.96985638,16.2719364 9.68336223,16.018649 L8.93767688,15.36 L8.93767688,15.36 Z" id="Shape"></path>
                    <path d="M6.2561083,0.811020111 C7.58263872,0.811020111 8.78544571,1.3052017 9.64451671,2.20273062 C10.479381,3.07484758 10.897351,4.2627217 10.8204273,5.54737756 C10.799986,5.88692465 10.7445795,6.22971581 10.6547455,6.5665595 L10.5337117,7.02019008 L10.8650753,7.35108629 L11.2464663,7.73226574 L11.2975694,7.78363035 L11.3341485,7.81985591 L12.8236711,9.30834816 L15.4831871,11.9657907 L17.0092888,13.4910492 C19.5063506,15.9862878 21.7656481,18.2441677 21.9340196,18.4128599 L21.9345575,18.4134006 L21.945854,18.4247549 C22.1362805,18.6150743 22.2331076,18.87406 22.2331076,19.1941426 C22.2336455,19.8126806 21.8436477,20.5863938 21.2164236,21.2146641 C20.5827445,21.8488818 19.8258798,22.2278985 19.1927385,22.2278985 C18.8742852,22.2278985 18.6176935,22.1321982 18.4283429,21.9424194 L13.4966191,17.0141206 L11.4040792,14.92277 L9.87851539,13.3980522 L7.78543757,11.3067017 L7.34595041,10.8676695 L7.0172764,10.5394767 L6.56918239,10.658967 C6.22706019,10.7503419 5.88224834,10.8071133 5.541202,10.8276592 C5.43684397,10.8341473 5.33356179,10.8373914 5.23081755,10.8373914 C4.07642408,10.8373914 3.04360234,10.4367475 2.24424134,9.67871401 C1.31577763,8.79848685 0.805821894,7.53059207 0.807435678,6.1080628 C0.807973606,5.59982353 1.0672549,4.96506512 1.19904726,4.67471992 L1.31416385,4.79042546 L1.36795664,4.84395278 L3.18830497,6.66874803 C3.44220698,6.92448971 3.78002576,7.06560721 4.13989958,7.06560721 C4.49869755,7.06560721 4.83651633,6.92503039 5.0914942,6.66928871 L6.66009222,5.09212494 C7.18457201,4.56496187 7.18457201,3.70744327 6.66063015,3.18136156 L5.17863853,1.68854387 L4.79509587,1.30195762 L4.682131,1.18787412 C5.18832124,0.957003731 5.70311832,0.820211672 6.10010918,0.811560791 C6.15228819,0.812101471 6.20446721,0.811020111 6.2561083,0.811020111 L6.2561083,0.811020111 Z M6.2561083,0 C6.19639829,0 6.13722621,0.000540680074 6.07697828,0.00270340037 C5.39865108,0.0167610823 4.71010325,0.286019759 4.34861564,0.450927182 L4.34861564,0.450927182 L4.33301573,0.458496703 C4.23403698,0.503913829 4.15657535,0.542302114 4.11892039,0.562307277 L4.11892039,0.562847957 L3.31041462,0.956463051 L4.22381635,1.87670054 L4.22381635,1.87670054 L4.60735901,2.26328679 L6.08935062,3.75610448 C6.29914254,3.9669697 6.29914254,4.30976087 6.08935062,4.5206261 L4.5207526,6.09778988 C4.41531871,6.20322249 4.27760915,6.25620914 4.13989958,6.25620914 C4.00219002,6.25620914 3.86501838,6.20376317 3.75958449,6.09778988 L1.93762239,4.27137259 L1.88382959,4.21784526 L1.88382959,4.21784526 L0.983338131,3.31545021 L0.574512858,4.11511604 L0.572899074,4.11457536 C0.560526731,4.13836529 0.541699251,4.17675357 0.518568347,4.22433342 L0.517492491,4.22649614 L0.517492491,4.22649614 C0.360417518,4.5530669 0.00108162013,5.38138878 5.76414531e-06,6.10860348 C-0.00214594782,7.7576777 0.59818169,9.23535635 1.69017551,10.270218 C2.63262535,11.1639622 3.87631487,11.6494929 5.23081755,11.6494929 C5.35023756,11.6494929 5.47073343,11.6457081 5.59176723,11.6381386 C5.9871443,11.6143487 6.38413516,11.5489264 6.77682259,11.4440344 L7.21630976,11.8830667 L9.30938757,13.9744172 L10.8349514,15.499135 L12.9274912,17.5904855 L17.8592151,22.5187844 C18.2099441,22.8702265 18.6763277,23.04 19.1927385,23.04 C20.0173822,23.04 20.9700526,22.6069153 21.7855515,21.7904883 C22.5714643,21.0043395 23.0405375,20.0338188 23.0399995,19.1946833 C23.0399995,18.6588694 22.8576419,18.1928031 22.5144439,17.8505526 C22.5090646,17.8451458 20.1717675,15.5088672 17.5778787,12.9163063 C17.0733023,12.4123925 16.560119,11.8992871 16.051777,11.3915885 C15.1141685,10.4551306 14.1964634,9.53759651 13.392261,8.73414592 C12.8107609,8.15291484 12.2921983,7.63494333 11.8666972,7.20942811 C11.7101602,7.05263089 11.5627679,6.90556591 11.4336652,6.77688405 C11.5374853,6.38597236 11.6014987,5.9912759 11.6251676,5.59657945 C11.7155395,4.08321592 11.218494,2.67852909 10.224941,1.64096403 C9.2195536,0.589341281 7.82685803,0 6.2561083,0 L6.2561083,0 Z M4.6014418,1.49822449 L4.60251765,1.49714313 L4.6014418,1.49822449 L4.6014418,1.49822449 Z" id="Shape"></path>
                    <path d="M19.0078445,1.77473099 C19.8247944,1.77473099 20.972647,2.55144121 21.6935809,3.27329287 C22.3391124,3.92018928 22.8370938,4.66322395 23.0600462,5.31283613 C23.2618426,5.90052875 23.2217003,6.34102664 22.9412468,6.62129411 L19.1977067,10.3695998 L14.5921923,5.78483695 L18.3492939,2.02240922 C18.5142028,1.85837671 18.7355279,1.77473099 19.0078445,1.77473099 L19.0078445,1.77473099 Z M19.0078445,0.96 C18.3899787,0.96 17.9961502,1.224516 17.7742827,1.44666598 L13.44,5.78646641 L19.1993341,11.52 L23.516258,7.19703734 C24.6315628,6.08085588 23.6513314,4.08204917 22.2685921,2.69700648 C21.4684586,1.89585434 20.134541,0.96 19.0078445,0.96 L19.0078445,0.96 Z" id="Shape"></path>
                </g>
            </g>
        </g>
    </g>
</svg>