<?xml version="1.0" encoding="UTF-8"?>
<svg width="56px" height="38px" viewBox="0 0 56 38" version="1.1" xmlns="http://www.w3.org/2000/svg" xmlns:xlink="http://www.w3.org/1999/xlink">
    <!-- Generator: Sketch 57.1 (83088) - https://sketch.com -->
    <title>Data Table / Web / Action Bar / *Element* / Filter / Inactive@1x</title>
    <desc>Created with Sketch.</desc>
    <defs>
        <path d="M8.9375,10.6875 C9.83551062,10.6875 10.5994771,11.1831507 10.8826258,11.8749657 L13.75,11.875 L13.75,13.0625 L10.8824433,13.06298 C10.5991489,13.7545622 9.83531776,14.25 8.9375,14.25 C8.03968224,14.25 7.27585108,13.7545622 6.99255669,13.06298 L0,13.0625 L0,11.875 L6.9923742,11.8749657 C7.27552293,11.1831507 8.03948938,10.6875 8.9375,10.6875 Z M8.9375,11.875 C8.55780423,11.875 8.25,12.1408309 8.25,12.46875 C8.25,12.7966691 8.55780423,13.0625 8.9375,13.0625 C9.31719577,13.0625 9.625,12.7966691 9.625,12.46875 C9.625,12.1408309 9.31719577,11.875 8.9375,11.875 Z M4.8125,5.34375 C5.71031776,5.34375 6.47414892,5.83918779 6.75744331,6.53077004 L13.75,6.53125 L13.75,7.71875 L6.75744331,7.71922996 C6.47414892,8.41081221 5.71031776,8.90625 4.8125,8.90625 C3.91468224,8.90625 3.15085108,8.41081221 2.86755669,7.71922996 L0,7.71875 L0,6.53125 L2.86755669,6.53077004 C3.15085108,5.83918779 3.91468224,5.34375 4.8125,5.34375 Z M4.8125,6.53125 C4.43280423,6.53125 4.125,6.79708093 4.125,7.125 C4.125,7.45291907 4.43280423,7.71875 4.8125,7.71875 C5.19219577,7.71875 5.5,7.45291907 5.5,7.125 C5.5,6.79708093 5.19219577,6.53125 4.8125,6.53125 Z M8.9375,0 C9.83531776,0 10.5991489,0.495437791 10.8824433,1.18702004 L13.75,1.1875 L13.75,2.375 L10.8822183,2.37602906 C10.5987446,3.06732444 9.83508013,3.5625 8.9375,3.5625 C8.03991987,3.5625 7.27625543,3.06732444 6.99278174,2.37602906 L0,2.375 L0,1.1875 L6.99255669,1.18702004 C7.27585108,0.495437791 8.03968224,0 8.9375,0 Z M8.9375,1.1875 C8.55780423,1.1875 8.25,1.45333093 8.25,1.78125 C8.25,2.10916907 8.55780423,2.375 8.9375,2.375 C9.31719577,2.375 9.625,2.10916907 9.625,1.78125 C9.625,1.45333093 9.31719577,1.1875 8.9375,1.1875 Z" id="path-1"></path>
    </defs>
    <g id="页面1" stroke="none" stroke-width="1" fill="none" fill-rule="evenodd">
        <g id="HSE-alarm-list1" transform="translate(-1843.000000, -187.000000)">
            <g id="Data-Table-/-Web-/-Action-Bar-/-*Element*-/-Filter-/-Inactive" transform="translate(1843.000000, 187.000000)">
                <g id="*Style*-/-Layers-+-No-Shadows-/-1---Flat" fill="#014872">
                    <rect id="Light-Theme" x="0" y="0" width="56" height="38"></rect>
                </g>
                <g id="Icon-/-Filter-/-24px" transform="translate(17.000000, 9.500000)">
                    <g id="Shape" transform="translate(4.125000, 2.375000)">
                        <mask id="mask-2" fill="#014872">
                            <use xlink:href="#path-1"></use>
                        </mask>
                        <use id="Mask" fill="#E0E0E0" xlink:href="#path-1"></use>
                        <g id="Icon-/-Tint-/-Non-Interactive" mask="url(#mask-2)">
                            <g transform="translate(-4.812500, -2.968750)" id="*Style*-/-Color-/-Action-/-Disabled">
                                <g>
                                    <rect id="Light-Theme" fill="#A0A0A0" x="0" y="0" width="23" height="20"></rect>
                                </g>
                            </g>
                        </g>
                    </g>
                </g>
            </g>
        </g>
    </g>
</svg>