<?xml version="1.0" encoding="UTF-8"?>
<svg width="57px" height="38px" viewBox="0 0 57 38" version="1.1" xmlns="http://www.w3.org/2000/svg" xmlns:xlink="http://www.w3.org/1999/xlink">
    <!-- Generator: Sketch 57.1 (83088) - https://sketch.com -->
    <title>Data Table / Web / Action Bar / *Element* / Filter / Selected</title>
    <desc>Created with Sketch.</desc>
    <defs>
        <path d="M9.34375,10.6875 C10.2824576,10.6875 11.0810644,11.1830221 11.3771755,11.8746967 L14.375,11.875 L14.375,13.0625 L11.3771755,13.0628033 C11.0810644,13.7544779 10.2824576,14.25 9.34375,14.25 C8.40504244,14.25 7.60643562,13.7544779 7.31032455,13.0628033 L0,13.0625 L0,11.875 L7.31032455,11.8746967 C7.60643562,11.1830221 8.40504244,10.6875 9.34375,10.6875 Z M9.34375,11.875 C8.94679534,11.875 8.625,12.1408309 8.625,12.46875 C8.625,12.7966691 8.94679534,13.0625 9.34375,13.0625 C9.74070466,13.0625 10.0625,12.7966691 10.0625,12.46875 C10.0625,12.1408309 9.74070466,11.875 9.34375,11.875 Z M5.03125,5.34375 C5.96995756,5.34375 6.76856438,5.83927215 7.06467545,6.53094666 L14.375,6.53125 L14.375,7.71875 L7.06467545,7.71905334 C6.76856438,8.41072785 5.96995756,8.90625 5.03125,8.90625 C4.09254244,8.90625 3.29393562,8.41072785 2.99782455,7.71905334 L0,7.71875 L0,6.53125 L2.99782455,6.53094666 C3.29393562,5.83927215 4.09254244,5.34375 5.03125,5.34375 Z M5.03125,6.53125 C4.63429534,6.53125 4.3125,6.79708093 4.3125,7.125 C4.3125,7.45291907 4.63429534,7.71875 5.03125,7.71875 C5.42820466,7.71875 5.75,7.45291907 5.75,7.125 C5.75,6.79708093 5.42820466,6.53125 5.03125,6.53125 Z M9.34375,0 C10.2824576,0 11.0810644,0.495522149 11.3771755,1.18719666 L14.375,1.1875 L14.375,2.375 L11.3767482,2.37630033 C11.0802968,3.06745397 10.2820065,3.5625 9.34375,3.5625 C8.40549352,3.5625 7.60720317,3.06745397 7.31075178,2.37630033 L0,2.375 L0,1.1875 L7.31032455,1.18719666 C7.60643562,0.495522149 8.40504244,0 9.34375,0 Z M9.34375,1.1875 C8.94679534,1.1875 8.625,1.45333093 8.625,1.78125 C8.625,2.10916907 8.94679534,2.375 9.34375,2.375 C9.74070466,2.375 10.0625,2.10916907 10.0625,1.78125 C10.0625,1.45333093 9.74070466,1.1875 9.34375,1.1875 Z" id="path-1"></path>
    </defs>
    <g id="页面1" stroke="none" stroke-width="1" fill="none" fill-rule="evenodd">
        <g id="HSE-alarm-list3" transform="translate(-1842.000000, -187.000000)">
            <g id="Data-Table-/-Web-/-Action-Bar-/-*Element*-/-Filter-/-Selected" transform="translate(1842.000000, 187.000000)">
                <g id="*Style*-/-Color-/-Table-/-Background-/-Highlight" fill="#D0E9F9">
                    <polygon id="Light-Theme" points="0 0 57 0 57 38 0 38"></polygon>
                </g>
                <g id="Icon-/-Filter-/-24px" transform="translate(17.100000, 9.500000)">
                    <g id="Shape" transform="translate(4.312500, 2.375000)">
                        <mask id="mask-2" fill="white">
                            <use xlink:href="#path-1"></use>
                        </mask>
                        <use id="Mask" fill="#707070" xlink:href="#path-1"></use>
                        <g id="Icon-/-Tint-/-Actionable---Light-Background-/-Interactive" mask="url(#mask-2)">
                            <g transform="translate(-5.031250, -2.968750)" id="*Style*-/-Color-/-Action-/-Secondary">
                                <g>
                                    <rect id="Light-Theme" fill="#303030" x="0" y="0" width="24" height="20"></rect>
                                </g>
                            </g>
                        </g>
                    </g>
                </g>
            </g>
        </g>
    </g>
</svg>