<?xml version="1.0" encoding="UTF-8"?>
<svg width="25px" height="19px" viewBox="0 0 25 19" version="1.1" xmlns="http://www.w3.org/2000/svg" xmlns:xlink="http://www.w3.org/1999/xlink">
    <!-- Generator: Sketch 54 (76480) - https://sketchapp.com -->
    <title>Mask</title>
    <desc>Created with Sketch.</desc>
    <defs>
        <path d="M31.5625799,746.919043 L28,743.242994 L28,757.5 L41.875,757.5 L38.2961661,753.830015 L39.801877,752.2838 L38.7571885,751.212062 L36.2067891,753.830015 L38.3079872,755.985619 L29.4776358,755.985619 L29.4776358,746.916011 L31.5596246,749.065552 L36.276238,744.226811 L36.8510383,744.819526 L37.8957268,743.747788 L36.276238,742.083333 L31.5625799,746.919043 Z M39.1386958,739 L42.5951125,742.295038 L37.6771958,746.983338 L44.3109875,753.305931 L49.2273625,748.620569 L52.6668208,751.917077 L52.6668208,739 L39.1386958,739 Z M39.8571125,746.983338 L43.6835292,743.334106 L44.7750292,742.295038 L43.6835292,741.255969 L42.8618208,740.469687 L51.1251542,740.469687 L51.1251542,748.354556 L50.3204042,747.58297 L49.2319875,746.536553 L48.1374042,747.580031 L44.3109875,751.227793 L39.8571125,746.983338 Z" id="path-1"></path>
    </defs>
    <g id="Gateway" stroke="none" stroke-width="1" fill="none" fill-rule="evenodd">
        <g transform="translate(-28.000000, -739.000000)">
            <mask id="mask-2" fill="white">
                <use xlink:href="#path-1"></use>
            </mask>
            <use id="Mask" fill="#FFFFFF" xlink:href="#path-1"></use>
        </g>
    </g>
</svg>