<?xml version="1.0" encoding="UTF-8"?>
<svg width="26px" height="25px" viewBox="0 0 26 25" version="1.1" xmlns="http://www.w3.org/2000/svg" xmlns:xlink="http://www.w3.org/1999/xlink">
    <!-- Generator: Sketch 59.1 (86144) - https://sketch.com -->
    <title>alarm</title>
    <desc>Created with Sketch.</desc>
    <g id="notification" stroke="none" stroke-width="1" fill="none" fill-rule="evenodd">
        <g id="alarm2" transform="translate(-1683.000000, -19.000000)">
            <g id="alarm" transform="translate(1680.000000, 16.000000)">
                <rect id="矩形" x="0" y="0" width="32" height="32"></rect>
                <g id="task" transform="translate(3.000000, 4.000000)" stroke="#FFFFFF">
                    <g id="编组-7">
                        <path d="M6.03846154,22.7615385 L19.8076923,22.7615385 L19.8076923,13.5692073 C19.8076674,9.76694812 16.7253269,6.68461538 12.9230769,6.68461538 C9.12082691,6.68461538 6.03848646,9.76694812 6.03846154,13.569204 L6.03846154,22.7615385 Z" id="矩形"></path>
                        <line x1="21.7931359" y1="3.64925269" x2="21.7931359" y2="7.52617577" id="直线-4" stroke-linecap="round" transform="translate(21.793136, 5.587714) rotate(51.000000) translate(-21.793136, -5.587714) "></line>
                        <line x1="23.6646859" y1="13.1413567" x2="23.6646859" y2="17.0182798" id="直线-4" stroke-linecap="round" transform="translate(23.664686, 15.079818) rotate(103.000000) translate(-23.664686, -15.079818) "></line>
                        <line x1="2.18146793" y1="13.1413567" x2="2.18146793" y2="17.0182798" id="直线-4" stroke-linecap="round" transform="translate(2.181468, 15.079818) rotate(257.000000) translate(-2.181468, -15.079818) "></line>
                        <line x1="4.05301794" y1="3.64925269" x2="4.05301794" y2="7.52617577" id="直线-4" stroke-linecap="round" transform="translate(4.053018, 5.587714) rotate(309.000000) translate(-4.053018, -5.587714) "></line>
                        <line x1="12.9230769" y1="0" x2="12.9230769" y2="3.87692308" id="直线-4" stroke-linecap="round"></line>
                        <line x1="1.93846154" y1="23.0769231" x2="23.9076923" y2="23.0769231" id="直线-3"></line>
                    </g>
                    <polyline id="路径-5" stroke-linecap="round" stroke-linejoin="round" points="13.8461538 10.1538462 10.1538462 13.8461538 15.6923077 13.8461538 12 17.5384615"></polyline>
                </g>
            </g>
        </g>
    </g>
</svg>