<?xml version="1.0" encoding="UTF-8"?>
<svg width="21px" height="24px" viewBox="0 0 21 24" version="1.1" xmlns="http://www.w3.org/2000/svg" xmlns:xlink="http://www.w3.org/1999/xlink">
    <!-- Generator: Sketch 59.1 (86144) - https://sketch.com -->
    <title>message</title>
    <desc>Created with Sketch.</desc>
    <defs>
        <path d="M19.9958879,18.4045532 L15.2845941,18.4045532 L15.2845941,14.958747 L15.0255331,14.8161688 C13.608731,14.0394666 13.4852252,11.9785634 13.4842211,11.9785634 L13.4842211,6.99331145 C13.4842211,5.27838478 12.0784642,3.88351128 10.3523955,3.88351128 L10.3523955,4.88056167 C11.5251984,4.88056167 12.480109,5.82775954 12.480109,6.99331145 L12.4811131,12.0014956 C12.4851296,12.1041918 12.6126518,14.4053841 14.280482,15.531054 L14.280482,18.4045532 L1.00411208,18.4045532 L1.00411208,13.9577084 L2.11365592,13.9577084 C3.48125657,13.9577084 4.59381276,12.8529766 4.59381276,11.5039674 L4.68518696,6.40903992 C4.68518696,3.47472062 7.33303051,0.997050393 10.4678684,0.997050393 L10.5321316,0.997050393 C13.6669695,0.997050393 16.314813,3.47472062 16.314813,6.41801338 L16.4061872,11.494994 C16.4061872,12.8529766 17.5187434,13.9577084 18.8863441,13.9577084 L19.9958879,13.9577084 L19.9958879,18.4045532 Z M10.4457779,23.0029496 C8.537965,23.0029496 6.97657072,21.4256159 6.74964139,19.4016036 L14.1429186,19.4016036 C13.9149852,21.4256159 12.354595,23.0029496 10.4457779,23.0029496 L10.4457779,23.0029496 Z M18.8863441,12.9606581 C18.0720092,12.9606581 17.4102993,12.3036018 17.4102993,11.4870176 L17.3189251,6.40903992 C17.3189251,2.87549333 14.2744573,0 10.5321316,0 L10.4678684,0 C6.7255427,0 3.68107488,2.87549333 3.68107488,6.40006647 L3.58970068,11.494994 C3.58970068,12.3036018 2.92799082,12.9606581 2.11365592,12.9606581 L0,12.9606581 L0,19.4016036 L5.74653342,19.4016036 C5.98350387,21.9759877 7.98771158,24 10.4457779,24 C12.9048484,24 14.9090561,21.9759877 15.1460266,19.4016036 L21,19.4016036 L21,12.9606581 L18.8863441,12.9606581 Z" id="path-1"></path>
    </defs>
    <g id="notification" stroke="none" stroke-width="1" fill="none" fill-rule="evenodd">
        <g id="alarm2" transform="translate(-1814.000000, -20.000000)">
            <g id="message" transform="translate(1808.000000, 16.000000)">
                <rect id="矩形" x="0" y="0" width="32" height="32"></rect>
                <g id="Actions-/-Notification-/-16px" transform="translate(6.000000, 4.000000)">
                    <mask id="mask-2" fill="white">
                        <use xlink:href="#path-1"></use>
                    </mask>
                    <use id="Mask" fill="#303030" xlink:href="#path-1"></use>
                    <g id="Icon-/-Tint-/-Actionable---Light-Background-/-Interactive" mask="url(#mask-2)" fill="#FFFFFF">
                        <g transform="translate(-6.000000, -4.000000)" id="Light-Theme">
                            <rect x="0" y="0" width="32" height="32"></rect>
                        </g>
                    </g>
                </g>
            </g>
        </g>
    </g>
</svg>