<?xml version="1.0" encoding="UTF-8"?>
<svg width="22px" height="22px" viewBox="0 0 22 22" version="1.1" xmlns="http://www.w3.org/2000/svg" xmlns:xlink="http://www.w3.org/1999/xlink">
    <!-- Generator: Sketch 59.1 (86144) - https://sketch.com -->
    <title>task</title>
    <desc>Created with Sketch.</desc>
    <defs>
        <path d="M20.625,20.625 L2.75,20.625 L2.75,19.25 L19.25,19.25 L19.25,6.875 L19.25,5.5 L19.25,4.125 L20.625,4.125 L20.625,20.625 Z M1.375,6.875 L17.875,6.875 L17.875,17.875 L2.75,17.875 L1.375,17.875 L1.375,6.875 Z M1.375,2.75 L5.5,2.75 L5.5,4.125 L6.875,4.125 L6.875,2.75 L12.375,2.75 L12.375,4.125 L13.75,4.125 L13.75,2.75 L17.875,2.75 L17.875,4.125 L17.875,5.5 L1.375,5.5 L1.375,2.75 Z M20.625,2.75 L19.25,2.75 L19.25,1.375 L13.75,1.375 L13.75,0 L12.375,0 L12.375,1.375 L6.875,1.375 L6.875,0 L5.5,0 L5.5,1.375 L0,1.375 L0,19.25 L1.375,19.25 L1.375,20.625 L1.375,22 L22,22 L22,4.125 L22,2.75 L20.625,2.75 Z" id="path-1"></path>
    </defs>
    <g id="notification" stroke="none" stroke-width="1" fill="none" fill-rule="evenodd">
        <g id="alarm2" transform="translate(-1749.000000, -21.000000)">
            <g id="task" transform="translate(1744.000000, 16.000000)">
                <rect id="矩形" x="0" y="0" width="32" height="32"></rect>
                <g id="alarm" transform="translate(5.000000, 5.000000)">
                    <g id="Content--/-Holiday-Group-/-16px">
                        <mask id="mask-2" fill="white">
                            <use xlink:href="#path-1"></use>
                        </mask>
                        <use id="Mask" fill="#303030" xlink:href="#path-1"></use>
                        <g id="*Style*-/-Icon-/-Tint-/-Actionable---Dark-Background-/-Interactive" mask="url(#mask-2)" fill="#FFFFFF">
                            <g transform="translate(-5.500000, -5.500000)" id="Light-Theme">
                                <rect x="0" y="0" width="33" height="33"></rect>
                            </g>
                        </g>
                    </g>
                    <line x1="4.8125" y1="14.4375" x2="14.4375" y2="14.4375" id="直线-9" stroke="#FFFFFF" stroke-linecap="square"></line>
                    <line x1="4.8125" y1="10.3125" x2="14.4375" y2="10.3125" id="直线-9" stroke="#FFFFFF" stroke-linecap="square"></line>
                </g>
            </g>
        </g>
    </g>
</svg>