<?xml version="1.0" encoding="UTF-8"?>
<svg width="108px" height="20px" viewBox="0 0 108 20" version="1.1" xmlns="http://www.w3.org/2000/svg" xmlns:xlink="http://www.w3.org/1999/xlink">
    <!-- Generator: Sketch 54 (76480) - https://sketchapp.com -->
    <title>ic_honeywell_logo</title>
    <desc>Created with Sketch.</desc>
    <g id="页面1" stroke="none" stroke-width="1" fill="none" fill-rule="evenodd">
        <g id="Frame-collapse" transform="translate(-80.000000, -24.000000)" fill="#FFFFFF" fill-rule="nonzero">
            <g id="Logo" transform="translate(80.000000, 24.000000)">
                <g id="ic_honeywell_logo">
                    <path d="M8.60799988,0 L13.4499998,0 L13.4499998,15.6019998 L8.60799988,15.6019998 L8.60799988,8.51833321 L4.84199993,8.51833321 L4.84199993,15.6019998 L0,15.6019998 L0,0 L4.84199993,0 L4.84199993,6.54566657 L8.60799988,6.54566657 L8.60799988,0 L8.60799988,0 Z M26.9896663,6.81466657 C27.8863329,8.33899988 27.9759996,10.4909999 27.3483329,12.2843332 C26.7206663,14.0776665 25.465333,14.9743331 24.658333,15.4226664 C23.851333,15.8709998 22.506333,16.1399998 21.2509997,16.1399998 C19.9956664,16.1399998 18.2919997,15.8709998 17.2159998,14.9743331 C16.1399998,14.0776665 15.3329998,13.1809998 15.0639998,11.8359998 C14.7053331,10.4909999 14.5259998,8.24933322 15.8709998,6.36633324 C17.2159998,4.48333327 19.0093331,4.21433327 19.8163331,4.03499994 C20.5336664,3.94533328 20.9819997,3.94533328 21.0716664,3.94533328 C21.0716664,3.94533328 22.5959997,3.85566661 23.851333,4.3936666 C25.1066663,4.75233327 26.0929996,5.29033326 26.9896663,6.81466657 Z M22.8649997,8.33899988 C22.8649997,7.44233323 22.6856663,6.81466657 22.5959997,6.45599991 C22.3269997,5.82833325 21.968333,5.20066659 21.2509997,5.20066659 C21.161333,5.20066659 21.0716664,5.20066659 20.9819997,5.20066659 C20.623333,5.29033326 20.2646664,5.64899992 19.9059997,6.36633324 C19.6369997,6.9939999 19.6369997,7.98033322 19.6369997,9.3253332 C19.6369997,9.68399986 19.6369997,10.1323332 19.6369997,10.5806665 C19.6369997,12.6429998 19.8163331,13.2706665 20.2646664,13.8983331 C20.5336664,14.2569998 20.8026664,14.5259998 21.161333,14.5259998 C21.430333,14.5259998 21.699333,14.4363331 21.968333,14.2569998 C22.6856663,13.6293331 22.8649997,12.3739998 22.8649997,12.0153332 C22.8649997,11.7463332 22.8649997,9.86333319 22.8649997,8.33899988 Z M39.1843328,4.21433327 C37.5703328,3.49699995 35.9563328,3.94533328 35.0596662,4.3936666 C34.1629995,4.84199993 33.5353329,5.73866659 33.5353329,5.73866659 L33.5353329,4.21433327 L29.0519996,4.21433327 L29.0519996,15.6019998 L33.5353329,15.6019998 L33.5353329,7.44233323 C33.5353329,7.2629999 34.0733329,6.63533324 34.7009995,6.36633324 C35.3286662,6.00766658 36.0459995,6.18699991 36.3149995,6.54566657 C36.6736661,6.9939999 36.6736661,7.44233323 36.6736661,7.71133322 L36.6736661,15.6019998 L41.1569994,15.6019998 L41.1569994,6.90433324 C41.0673328,6.36633324 40.7983328,4.9316666 39.1843328,4.21433327 Z M54.5173326,6.90433324 C55.3243325,8.51833321 55.2346659,10.5806665 55.2346659,10.5806665 L47.2543327,10.5806665 L47.2543327,12.9119998 C47.2543327,12.9119998 47.3439993,13.3603331 47.5233327,13.6293331 C47.702666,13.8983331 48.3303326,14.7949998 50.5719993,14.4363331 C52.9929992,14.0776665 52.9033326,12.2843332 52.9929992,12.2843332 L54.9656659,12.2843332 C54.9656659,12.2843332 54.9656659,13.4499998 54.1586659,14.1673331 C53.3516659,14.9743331 51.9169993,15.6916664 50.392666,15.8709998 C48.778666,16.0503331 46.5369993,16.0503331 44.743666,14.5259998 C43.667666,13.6293331 43.2193327,12.6429998 42.8606661,11.8359998 C42.5019994,10.7599998 42.3226661,8.60799988 43.2193327,6.81466657 C44.1159994,5.02133326 46.357666,3.58666662 49.2269993,3.67633328 C51.9169993,3.94533328 53.5309992,5.02133326 54.5173326,6.90433324 Z M50.5719993,8.06999989 C50.5719993,7.44233323 50.4823326,6.81466657 50.392666,6.54566657 L50.392666,6.54566657 C50.3029993,6.36633324 50.2133326,6.00766658 49.7649993,5.55933325 C49.316666,5.11099993 48.509666,5.11099993 48.1509993,5.46966659 C47.7923327,5.73866659 47.433666,6.27666658 47.3439993,6.9939999 C47.2543327,7.62166656 47.2543327,8.78733321 47.2543327,9.0563332 L50.5719993,9.0563332 C50.5719993,8.87699987 50.5719993,8.60799988 50.5719993,8.06999989 Z M95.4949986,6.90433324 C96.3019986,8.51833321 96.212332,10.5806665 96.212332,10.5806665 L88.2319987,10.5806665 L88.2319987,12.9119998 C88.2319987,12.9119998 88.3216654,13.3603331 88.5009987,13.6293331 C88.6803321,13.8983331 89.3079987,14.7949998 91.5496654,14.4363331 C93.9706653,14.0776665 93.8809987,12.2843332 93.9706653,12.2843332 L95.943332,12.2843332 C95.943332,12.2843332 95.943332,13.4499998 95.136332,14.1673331 C94.329332,14.9743331 92.8946653,15.6916664 91.370332,15.8709998 C89.7563321,16.0503331 87.5146654,16.0503331 85.7213321,14.5259998 C84.6453321,13.6293331 84.1969988,12.6429998 83.8383321,11.8359998 C83.4796655,10.7599998 83.3003322,8.60799988 84.1969988,6.81466657 C85.0936655,5.02133326 87.3353321,3.58666662 90.2046654,3.67633328 C92.8049987,3.94533328 94.4189987,5.02133326 95.4949986,6.90433324 Z M91.4599987,8.06999989 C91.4599987,7.44233323 91.370332,6.81466657 91.2806654,6.54566657 L91.2806654,6.54566657 C91.1909987,6.36633324 91.101332,6.00766658 90.6529987,5.55933325 C90.2046654,5.11099993 89.3976654,5.11099993 89.0389987,5.46966659 C88.6803321,5.73866659 88.3216654,6.27666658 88.2319987,6.9939999 C88.1423321,7.62166656 88.1423321,8.78733321 88.1423321,9.0563332 L91.4599987,9.0563332 C91.4599987,8.87699987 91.4599987,8.60799988 91.4599987,8.06999989 Z M81.5966655,4.21433327 L79.8929989,10.5806665 L77.9203322,4.21433327 L73.974999,4.21433327 L72.2713323,10.5806665 L70.2986657,4.21433327 L64.1116658,4.21433327 L61.8699991,9.5943332 L59.8076658,4.12466661 L54.8759992,4.12466661 L59.4489992,15.7813331 C59.4489992,15.7813331 59.4489992,15.8709998 59.3593325,16.2296664 C59.2696658,16.5883331 58.9109992,17.3953331 58.3729992,17.9333331 C57.8349992,18.5609997 57.2073325,18.3816664 57.2073325,18.3816664 C57.2073325,18.3816664 57.4763325,18.2023331 57.5659992,17.8436664 C57.7453325,17.4849998 57.6556658,16.9469998 57.3866659,16.4089998 C57.1176659,15.8709998 56.4003325,15.5123331 55.3243325,15.6916664 C54.2483326,15.8709998 53.7999992,16.8573331 53.8896659,17.8436664 C53.9793326,18.7403331 54.6069992,19.5473331 56.1313325,19.8163331 C57.6556658,20.085333 58.5523325,19.5473331 59.4489992,18.7403331 C60.2559991,18.0229997 60.9733325,16.0503331 60.9733325,16.0503331 L65.7256657,4.3936666 L69.132999,15.4226664 L72.898999,15.4226664 L74.6923323,8.78733321 L76.7546656,15.4226664 L80.4309989,15.4226664 L83.5693321,4.03499994 L81.5966655,4.03499994 L81.5966655,4.21433327 Z M97.4676653,15.6019998 L101.771665,15.6019998 L101.771665,0 L97.4676653,0 L97.4676653,15.6019998 Z M103.206332,0 L103.206332,15.6019998 L107.510332,15.6019998 L107.510332,0 L103.206332,0 Z" id="Shape"></path>
                </g>
            </g>
        </g>
    </g>
</svg>