<?xml version="1.0" encoding="UTF-8"?>
<svg width="16px" height="16px" viewBox="0 0 16 16" version="1.1" xmlns="http://www.w3.org/2000/svg" xmlns:xlink="http://www.w3.org/1999/xlink">
    <!-- Generator: Sketch 59.1 (86144) - https://sketch.com -->
    <title>Actions / Information / 16px </title>
    <desc>Created with Sketch.</desc>
    <defs>
        <path d="M12.0003,9.0273 C11.6943,9.0273 11.4993,9.2063 11.4993,9.5103 C11.4993,9.8343 11.6943,9.9953 12.0003,9.9953 C12.3143,9.9953 12.5013,9.8343 12.5013,9.5103 C12.5013,9.2063 12.3143,9.0273 12.0003,9.0273 M11.7025,10.7173 L11.6005,15.0153 L12.4075,15.0153 L12.3065,10.7173 L11.7025,10.7173 Z M12.0003,19 C8.1403,19 5.0003,15.859 5.0003,12 C5.0003,8.14 8.1403,5 12.0003,5 C15.8593,5 19.0003,8.14 19.0003,12 C19.0003,15.859 15.8593,19 12.0003,19 M12.0003,4 C7.5813,4 4.0003,7.582 4.0003,12 C4.0003,16.418 7.5813,20 12.0003,20 C16.4183,20 20.0003,16.418 20.0003,12 C20.0003,7.582 16.4183,4 12.0003,4" id="path-1"></path>
    </defs>
    <g id="realtime-position" stroke="none" stroke-width="1" fill="none" fill-rule="evenodd">
        <g id="1.4electronic-fence4" transform="translate(-935.000000, -384.000000)">
            <g id="Actions-/-Information-/-16px-" transform="translate(931.000000, 380.000000)">
                <mask id="mask-2" fill="white">
                    <use xlink:href="#path-1"></use>
                </mask>
                <use id="Mask" fill="#303030" fill-rule="evenodd" xlink:href="#path-1"></use>
                <g id="*Style*-/-Icon-/-Tint-/-Informational" mask="url(#mask-2)" fill="#1274B7" fill-rule="evenodd">
                    <g id="*Style*-/-Color-/-Action-/-Primary">
                        <rect id="Light-Theme" x="0" y="0" width="24" height="24"></rect>
                    </g>
                </g>
            </g>
        </g>
    </g>
</svg>