<?xml version="1.0" encoding="UTF-8"?>
<svg width="19px" height="17px" viewBox="0 0 19 17" version="1.1" xmlns="http://www.w3.org/2000/svg" xmlns:xlink="http://www.w3.org/1999/xlink">
    <!-- Generator: Sketch 59.1 (86144) - https://sketch.com -->
    <title>编组 11</title>
    <desc>Created with Sketch.</desc>
    <defs>
        <path d="M6.55187647,2.8067231 L6.58981803,8.14474542 L7.39723152,8.73907097 L10.8100947,7.70801944 L10.4488564,6.51120109 L7.83554755,7.2985106 L7.80371245,2.79880218 L6.55187647,2.8067231 Z M7.5,14.0625 C3.8821875,14.0625 0.9375,11.1178125 0.9375,7.5 C0.9375,3.8821875 3.8821875,0.9375 7.5,0.9375 C11.1178125,0.9375 14.0625,3.8821875 14.0625,7.5 C14.0625,11.1178125 11.1178125,14.0625 7.5,14.0625 M7.5,0 C3.3646875,0 0,3.3646875 0,7.5 C0,11.6353125 3.3646875,15 7.5,15 C11.6353125,15 15,11.6353125 15,7.5 C15,3.3646875 11.6353125,0 7.5,0" id="path-1"></path>
    </defs>
    <g id="notification" stroke="none" stroke-width="1" fill="none" fill-rule="evenodd">
        <g id="message1" transform="translate(-1418.000000, -744.000000)">
            <g id="编组-11" transform="translate(1416.000000, 741.000000)">
                <rect id="矩形" x="0" y="0" width="24" height="24"></rect>
                <g id="编组-10" transform="translate(2.500000, 3.000000)">
                    <g id="Content--/-Time-/-16px" transform="translate(2.000000, 2.000000)">
                        <mask id="mask-2" fill="white">
                            <use xlink:href="#path-1"></use>
                        </mask>
                        <use id="Mask" fill="#303030" xlink:href="#path-1"></use>
                        <g id="*Style*-/-Icon-/-Tint-/-Actionable---Dark-Background-/-Interactive" mask="url(#mask-2)" fill="#FFFFFF">
                            <g transform="translate(-3.750000, -3.750000)" id="Light-Theme">
                                <rect x="0" y="0" width="23" height="23"></rect>
                            </g>
                        </g>
                    </g>
                    <rect id="矩形" fill="#FFFFFF" transform="translate(2.915971, 2.526993) rotate(46.000000) translate(-2.915971, -2.526993) " x="1.91597134" y="0.0269926701" width="2" height="5"></rect>
                    <rect id="矩形" fill="#FFFFFF" transform="translate(15.915971, 2.526993) scale(-1, 1) rotate(46.000000) translate(-15.915971, -2.526993) " x="14.9159713" y="0.0269926701" width="2" height="5"></rect>
                </g>
            </g>
        </g>
    </g>
</svg>