<?xml version="1.0" encoding="UTF-8"?>
<svg width="16px" height="16px" viewBox="0 0 16 16" version="1.1" xmlns="http://www.w3.org/2000/svg" xmlns:xlink="http://www.w3.org/1999/xlink">
    <!-- Generator: Sketch 59.1 (86144) - https://sketch.com -->
    <title>system</title>
    <desc>Created with Sketch.</desc>
    <defs>
        <path d="M8.755,10.735 L9.245,10.735 L9.245,10.245 L8.755,10.245 L8.755,10.735 Z M7,17.001 L8,17.001 L8,16.001 L7,16.001 L7,17.001 Z M8.999,17.001 L10,17.001 L10,16.001 L8.999,16.001 L8.999,17.001 Z M5,17.001 L6,17.001 L6,16.001 L5,16.001 L5,17.001 Z M5,15.001 L6,15.001 L6,14.001 L5,14.001 L5,15.001 Z M4,9.0012 L4,12.0012 L5,12.0012 L5,13.0012 L6,13.0012 L6,12.0012 L11,12.0012 L11,9.0012 L4,9.0012 Z M5,11.0012 L10,11.0012 L10,10.0012 L5,10.0012 L5,11.0012 Z M4,8.001 L11,8.001 L11,4 L4,4 L4,8.001 Z M5,7.002 L10,7.002 L10,5.001 L5,5.001 L5,7.002 Z M16.9996,10.0011 L15.9996,10.0011 L12.9996,10.0011 L12.0006,10.0011 L12.0006,11.0011 L12.0006,16.0011 L11.0006,16.0011 L11.0006,17.0011 L12.0006,17.0011 L12.0006,19.0011 L12.0006,20.0011 L12.9996,20.0011 L19.0006,20.0011 L20.0006,20.0011 L20.0006,19.0011 L20.0006,14.0011 L20.0006,13.0011 L19.9886,13.0011 L20.0016,12.9871 L17.0076,9.9941 L16.9996,10.0011 Z M12.9996,11.0011 L15.9996,11.0011 L15.9996,13.0011 L15.9996,14.0011 L19.0006,14.0011 L19.0006,19.0011 L12.9996,19.0011 L12.9996,11.0011 Z M16.9996,11.4001 L18.6016,13.0011 L16.9996,13.0011 L16.9996,11.4001 Z" id="path-1"></path>
    </defs>
    <g id="notification" stroke="none" stroke-width="1" fill="none" fill-rule="evenodd">
        <g id="message1" transform="translate(-1419.000000, -617.000000)">
            <g id="Data--/-Mode-Transfer-/-16px" transform="translate(1415.000000, 613.000000)">
                <mask id="mask-2" fill="white">
                    <use xlink:href="#path-1"></use>
                </mask>
                <use id="Mask" fill="#303030" fill-rule="evenodd" xlink:href="#path-1"></use>
                <g id="*Style*-/-Icon-/-Tint-/-Actionable---Dark-Background-/-Interactive" mask="url(#mask-2)" fill="#FFFFFF" fill-rule="evenodd">
                    <rect id="Light-Theme" x="0" y="0" width="24" height="24"></rect>
                </g>
            </g>
        </g>
    </g>
</svg>