<?xml version="1.0" encoding="UTF-8"?>
<svg width="16px" height="17px" viewBox="0 0 16 17" version="1.1" xmlns="http://www.w3.org/2000/svg" xmlns:xlink="http://www.w3.org/1999/xlink">
    <!-- Generator: Sketch 59.1 (86144) - https://sketch.com -->
    <title>Actions / Refresh / 16px</title>
    <desc>Created with Sketch.</desc>
    <defs>
        <path d="M16,8 C16,12.411 12.411,16 8,16 C5.659,16 3.449,14.963 1.938,13.204 L1.938,13.204 L1.938,16.02 L0.938,16.02 L0.938,12.02 L4.937,12.02 L4.937,13.02 L3.141,13.02 C4.435,14.271 6.17,15 8,15 C11.859,15 15,11.859 15,8 L15,8 Z M7.9995,-0.0005 C10.2905,-0.0005 12.4195,0.9675 13.9375,2.6575 L13.9375,2.6575 L13.9375,0.0195 L14.9375,0.0195 L14.9375,4.0195 L10.9375,4.0195 L10.9375,3.0195 L12.9145,3.0195 C11.6105,1.7285 9.8635,0.9995 7.9995,0.9995 C4.1405,0.9995 0.9995,4.1405 0.9995,7.9995 L0.9995,7.9995 L-0.0005,7.9995 C-0.0005,3.5885 3.5885,-0.0005 7.9995,-0.0005 Z" id="path-1"></path>
    </defs>
    <g id="notification" stroke="none" stroke-width="1" fill="none" fill-rule="evenodd">
        <g id="notification1" transform="translate(-1421.000000, -445.000000)">
            <g id="Actions-/-Refresh-/-16px" transform="translate(1421.000000, 445.000000)">
                <mask id="mask-2" fill="white">
                    <use xlink:href="#path-1"></use>
                </mask>
                <use id="Mask" fill="#303030" xlink:href="#path-1"></use>
                <g id="Icon-/-Tint-/-Actionable---Light-Background-/-Interactive" mask="url(#mask-2)" fill="#FFFFFF">
                    <g transform="translate(-4.000000, -4.000000)" id="Light-Theme">
                        <rect x="0" y="0" width="24" height="24"></rect>
                    </g>
                </g>
            </g>
        </g>
    </g>
</svg>