<?xml version="1.0" encoding="UTF-8"?>
<svg width="14px" height="16px" viewBox="0 0 14 16" version="1.1" xmlns="http://www.w3.org/2000/svg" xmlns:xlink="http://www.w3.org/1999/xlink">
    <!-- Generator: Sketch 59.1 (86144) - https://sketch.com -->
    <title>review1</title>
    <desc>Created with Sketch.</desc>
    <defs>
        <path d="M17.9082,15.9649 L15.2192,15.9649 L15.2192,13.7969 L14.9612,13.6539 C14.1372,13.1989 14.0572,11.9629 14.0562,11.9629 L14.0562,8.7229 C14.0562,7.5109 13.0712,6.5249 11.8592,6.5249 L11.8592,7.5249 C12.5192,7.5249 13.0562,8.0619 13.0562,8.7229 L13.0572,11.9859 C13.0602,12.0549 13.1432,13.5669 14.2192,14.3629 L14.2192,15.9649 L6.0002,15.9649 L6.0002,13.4259 L6.5412,13.4259 C7.5212,13.4259 8.3182,12.6289 8.3182,11.6569 L8.3772,8.3419 C8.3772,6.5299 10.0062,4.9999 11.9332,4.9999 L11.9752,4.9999 C13.9032,4.9999 15.5322,6.5299 15.5322,8.3509 L15.5912,11.6489 C15.5912,12.6289 16.3872,13.4259 17.3682,13.4259 L17.9082,13.4259 L17.9082,15.9649 Z M11.9202,18.9549 C10.8392,18.9549 9.9332,18.0999 9.7242,16.9649 L14.1152,16.9649 C13.9062,18.0999 13.0012,18.9549 11.9202,18.9549 L11.9202,18.9549 Z M18.9082,12.4259 L17.3682,12.4259 C16.9392,12.4259 16.5912,12.0769 16.5912,11.6399 L16.5322,8.3419 C16.5322,5.9469 14.4882,3.9999 11.9752,3.9999 L11.9332,3.9999 C9.4212,3.9999 7.3772,5.9469 7.3772,8.3329 L7.3182,11.6489 C7.3182,12.0769 6.9702,12.4259 6.5412,12.4259 L5.0002,12.4259 L5.0002,16.9649 L8.7262,16.9649 C8.9542,18.6519 10.2922,19.9549 11.9202,19.9549 C13.5482,19.9549 14.8862,18.6519 15.1132,16.9649 L18.9082,16.9649 L18.9082,12.4259 Z" id="path-1"></path>
    </defs>
    <g id="notification" stroke="none" stroke-width="1" fill="none" fill-rule="evenodd">
        <g id="notification1" transform="translate(-1421.000000, -447.000000)">
            <g id="Actions-/-Notification-/-16px" transform="translate(1416.000000, 443.000000)">
                <mask id="mask-2" fill="white">
                    <use xlink:href="#path-1"></use>
                </mask>
                <use id="Mask" fill="#303030" fill-rule="evenodd" xlink:href="#path-1"></use>
                <g id="*Style*-/-Icon-/-Tint-/-Actionable---Dark-Background-/-Interactive" mask="url(#mask-2)" fill="#FFFFFF" fill-rule="evenodd">
                    <rect id="Light-Theme" x="0" y="0" width="24" height="24"></rect>
                </g>
            </g>
        </g>
    </g>
</svg>