<?xml version="1.0" encoding="UTF-8"?>
<svg width="24px" height="24px" viewBox="0 0 24 24" version="1.1" xmlns="http://www.w3.org/2000/svg" xmlns:xlink="http://www.w3.org/1999/xlink">
    <!-- Generator: Sketch 54 (76480) - https://sketchapp.com -->
    <title>Mask</title>
    <desc>Created with Sketch.</desc>
    <defs>
        <path d="M49.5380754,609.515101 C48.5932704,610.464208 47.3365202,610.987819 46.0000398,610.987819 C44.6635593,610.987819 43.4078058,610.464208 42.4620041,609.515101 C41.5171991,608.565994 40.9969584,607.303521 40.9969584,605.960954 C40.9969584,604.618388 41.5171991,603.356916 42.4620041,602.406808 C43.4078058,601.457701 44.6635593,600.935091 46.0000398,600.935091 C47.3365202,600.935091 48.5932704,601.457701 49.5380754,602.406808 C50.4828804,603.356916 51.0031211,604.618388 51.0031211,605.960954 C51.0031211,607.303521 50.4828804,608.565994 49.5380754,609.515101 L49.5380754,609.515101 Z M29.0324183,610.998832 C28.9297654,609.311864 28.8978733,603.192725 33.2551385,599.963958 C34.4999291,601.103287 36.158321,601.805106 37.9831501,601.805106 C39.7860533,601.805106 41.4265058,601.118305 42.6653166,600.004005 C42.9074976,600.184215 43.1377191,600.374437 43.3599675,600.577674 C42.7849122,600.862006 42.2357692,601.219423 41.7573869,601.698982 C39.4143104,604.053729 39.4143104,607.869181 41.7573869,610.222927 C42.0523893,610.519272 42.3703142,610.777574 42.7061784,610.998832 L29.0324183,610.998832 Z M37.9831501,589.001168 C41.2809979,589.001168 43.9629285,591.648256 43.9629285,594.902052 C43.9629285,598.155848 41.2809979,600.803938 37.9831501,600.803938 C34.6853022,600.803938 32.0033716,598.155848 32.0033716,594.902052 C32.0033716,591.648256 34.6853022,589.001168 37.9831501,589.001168 L37.9831501,589.001168 Z M46.0000398,599.933923 C45.4548833,599.933923 44.9167032,600.035041 44.3884894,600.183214 C44.0705646,599.858835 43.7297172,599.560487 43.3709305,599.282163 C44.3635737,598.089771 44.9595583,596.563991 44.9595583,594.902052 C44.9595583,591.096613 41.8301409,588 37.9831501,588 C34.1361592,588 31.0067418,591.096613 31.0067418,594.902052 C31.0067418,596.544969 31.5917635,598.053729 32.5634775,599.239112 C27.1457982,603.343901 28.0367852,611.215084 28.0796402,611.561488 L28.1334582,612 L45.7070306,612 L45.7070306,611.959953 C45.805697,611.964959 45.90237,611.988987 46.0000398,611.988987 C47.5348496,611.988987 49.070656,611.4003 50.2426926,610.222927 C52.5857691,607.869181 52.5857691,604.053729 50.2426926,601.698982 C49.070656,600.52261 47.5348496,599.933923 46.0000398,599.933923 L46.0000398,599.933923 Z M48.9901283,606.113733 L48.1998009,606.414083 L47.9057952,607.22603 L48.2715583,607.985917 L48.0582795,608.214183 L47.3227668,607.863774 L46.4517124,608.259236 L46.2135178,609.04315 L45.9563874,609.054163 L45.6912839,608.290272 L44.7414957,607.894811 L44.0029931,608.269247 L43.8455256,608.109061 L44.1774033,607.356182 L43.8026705,606.375038 L43.0103498,606.067679 L43.0103498,605.824395 L43.7927042,605.545069 L44.1813898,604.572935 L43.8385492,603.821058 L44.0159492,603.638845 L44.7544519,604.013282 L45.6992569,603.612815 L45.9454244,602.857934 L46.2115246,602.855932 L46.5194832,603.680894 L47.343696,604.076356 L48.0373503,603.699917 L48.2665751,603.937193 L47.8968255,604.698081 L48.2516257,605.540063 L48.9901283,605.798365 L48.9901283,606.113733 Z M48.991125,604.727115 L49.4695072,603.74597 L48.2277066,602.460471 L47.3157903,602.954046 L46.9001957,601.850759 L45.2218712,601.860771 L44.8939801,602.867946 L44.7913272,602.910996 L43.8156267,602.41742 L42.6475766,603.611814 L43.0970566,604.597964 L43.0352656,604.753145 L42.0137201,605.116569 L42.0137201,606.75448 L43.0302824,607.14894 L43.0990499,607.329151 L42.6575429,608.330319 L43.806657,609.491674 L44.7823575,608.996095 L44.8979666,609.04315 L45.2577499,610.084365 L46.9589969,610.014283 L47.2729353,608.984081 L47.3128005,608.967062 L48.2894976,609.430602 L49.467514,608.168129 L48.9921216,607.18298 L49.9867581,606.80554 L49.9867581,605.086534 L48.9971047,604.74013 L48.991125,604.727115 Z M46.0177798,606.73746 C45.5942121,606.73746 45.2503749,606.380043 45.2503749,605.940531 C45.2503749,605.502019 45.5942121,605.144602 46.0177798,605.144602 C46.4413474,605.144602 46.7851847,605.502019 46.7851847,605.940531 C46.7851847,606.380043 46.4413474,606.73746 46.0177798,606.73746 M46.0177798,604.143434 C45.0450691,604.143434 44.2537451,604.950375 44.2537451,605.940531 C44.2537451,606.931687 45.0450691,607.738628 46.0177798,607.738628 C46.9904904,607.738628 47.7818144,606.931687 47.7818144,605.940531 C47.7818144,604.950375 46.9904904,604.143434 46.0177798,604.143434" id="path-1"></path>
    </defs>
    <g id="页面1" stroke="none" stroke-width="1" fill="none" fill-rule="evenodd">
        <g id="Frame-Expand-2" transform="translate(-28.000000, -588.000000)">
            <mask id="mask-2" fill="white">
                <use xlink:href="#path-1"></use>
            </mask>
            <use id="Mask" fill="#FFFFFF" xlink:href="#path-1"></use>
        </g>
    </g>
</svg>