<?xml version="1.0" encoding="UTF-8"?>
<svg width="24px" height="24px" viewBox="0 0 24 24" version="1.1" xmlns="http://www.w3.org/2000/svg" xmlns:xlink="http://www.w3.org/1999/xlink">
    <!-- Generator: Sketch 54 (76480) - https://sketchapp.com -->
    <title>Mask</title>
    <desc>Created with Sketch.</desc>
    <defs>
        <path d="M39.9874353,551.659993 C43.3282013,553.187737 45.7665416,557.205669 45.984158,562 L46,562 L46,564 L28,564 L28,562 L28.015842,562 C28.2334584,557.205669 30.6717987,553.187737 34.0125647,551.659993 C34.7451717,552.482198 35.8121163,553 37,553 C38.1878837,553 39.2548283,552.482198 39.9874353,551.659993 Z M43.9819381,562 C43.7169449,556.886351 40.5730693,553 37,553 C33.4269307,553 30.2830551,556.886351 30.0180619,562 L43.9819381,562 Z M37,555 C33.6862915,555 31,552.313708 31,549 C31,545.686292 33.6862915,543 37,543 C40.3137085,543 43,545.686292 43,549 C43,550.26202 42.610366,551.433036 41.9448308,552.399315 C40.8628579,553.970213 39.0516888,555 37,555 Z M37,553 C38.3340588,553 39.5542158,552.344324 40.297717,551.264847 C40.753194,550.603548 41,549.822829 41,549 C41,546.790861 39.209139,545 37,545 C34.790861,545 33,546.790861 33,549 C33,551.209139 34.790861,553 37,553 Z M41.8630933,551.892432 C41.2922602,551.782948 40.7501778,551.592573 40.2492374,551.333698 C40.2656141,551.310944 40.2817751,551.287993 40.297717,551.264847 C40.6692188,550.72547 40.901901,550.106648 40.9750712,549.45033 C41.2703609,549.624004 41.5899108,549.760853 41.9274098,549.854565 C41.8237597,550.457488 41.610699,551.032101 41.2984777,551.555847 L41.8630933,551.892432 Z M43.3303901,551.991058 C43.6434365,551.329624 43.8511293,550.62135 43.9441002,549.887914 C44.8971253,549.657541 45.7342862,549.082883 46.297717,548.264847 C46.753194,547.603548 47,546.822829 47,546 C47,543.790861 45.209139,542 43,542 C42.0342977,542 41.1485245,542.342218 40.4573373,542.911996 C39.8278522,542.553745 39.1373841,542.290308 38.4053652,542.141117 C39.5059976,540.832 41.1558368,540 43,540 C46.3137085,540 49,542.686292 49,546 C49,547.26202 48.610366,548.433036 47.9448308,549.399315 C47.8683914,549.510296 47.7883125,549.618576 47.7047663,549.723983 C50.1380384,551.667483 51.8059255,555.073338 51.984158,559 L52,559 L52,561 L46.9113468,561 C46.8393716,560.315159 46.724498,559.64691 46.5701322,559 L49.9819381,559 C49.800849,555.505471 48.2753262,552.584089 46.187149,551.084447 C45.3511157,551.609613 44.3763884,551.934291 43.3303901,551.991058 Z M37.3374624,544.011208 C38.0307554,544.057412 38.685377,544.244932 39.272777,544.545216 C39.1488959,544.862369 39.0643264,545.199209 39.0250592,545.549746 C38.4533283,545.213455 37.790644,545.015216 37.0828175,545.00084 C37.1398847,544.660388 37.2256221,544.329655 37.3374624,544.011208 Z M35.7335327,552.795358 C36.1315364,552.928106 36.5573723,553 37,553 C37.364493,553 37.7204832,552.951054 38.060572,552.857891 C38.0070382,552.93174 37.9543353,553.006787 37.9024894,553.083003 C37.6057859,553.028216 37.304451,553 37,553 C36.4887092,553 35.9862068,553.079578 35.4996705,553.230944 C35.5751422,553.083359 35.6531226,552.93813 35.7335327,552.795358 Z M44.8992836,561 L43.8919996,561 C43.802248,560.302882 43.6583838,559.633724 43.4672941,559 L44.5067854,559 C44.6838126,559.639374 44.81641,560.308155 44.8992836,561 Z" id="path-1"></path>
    </defs>
    <g id="页面1" stroke="none" stroke-width="1" fill="none" fill-rule="evenodd">
        <g id="Frame-Expand-2" transform="translate(-28.000000, -540.000000)">
            <mask id="mask-2" fill="white">
                <use xlink:href="#path-1"></use>
            </mask>
            <use id="Mask" fill="#FFFFFF" fill-rule="nonzero" xlink:href="#path-1"></use>
        </g>
    </g>
</svg>