<?xml version="1.0" encoding="UTF-8"?>
<svg width="14px" height="16px" viewBox="0 0 14 16" version="1.1" xmlns="http://www.w3.org/2000/svg" xmlns:xlink="http://www.w3.org/1999/xlink">
    <!-- Generator: Sketch 59.1 (86144) - https://sketch.com -->
    <title>Controls / Move Switch Yard / 16px</title>
    <desc>Created with Sketch.</desc>
    <defs>
        <path d="M12.5033935,10.6992 L11.4870595,10.6992 L11.4870595,11.5012 L10.6780577,11.5012 L10.6780577,12.5012 L11.4870595,12.5012 L11.4870595,13.3022 L12.5033935,13.3022 L12.5033935,12.5012 L13.3113789,12.5012 L13.3113789,11.5012 L12.5033935,11.5012 L12.5033935,10.6992 Z M9.94324828,11.9995 C9.94324828,10.8875 10.8640468,9.9825 11.9952265,9.9825 C13.1253898,9.9825 14.0472047,10.8875 14.0472047,11.9995 C14.0472047,13.1135 13.1253898,14.0185 11.9952265,14.0185 C10.8640468,14.0185 9.94324828,13.1135 9.94324828,11.9995 Z M18.2792192,16.8235 L17.0163339,18 L17.0264973,15.749 L14.6925768,13.4095 C14.9212519,12.9875 15.0635387,12.5125 15.0635387,11.9995 C15.0635387,11.3705 14.8643372,10.7855 14.528947,10.3005 L17.0163339,7.7925 L17.0163339,3.9995 L16,3.9995 L16,7.3785 L13.8185296,9.5855 C13.3073136,9.2105 12.6812519,8.9825 11.9952265,8.9825 C11.3163154,8.9825 10.6963517,9.2055 10.1881848,9.5725 L8.04900508,7.3625 L8.04900508,3.9995 L7.03267114,3.9995 L7.03267114,7.7785 L9.47471833,10.2865 C9.13119746,10.7735 8.92691434,11.3625 8.92691434,11.9995 C8.92691434,12.3588333 9.04413152,12.8321667 9.27856588,13.4195 L7.03267114,15.7606459 L7.03267114,18.004 L5.72241343,16.8265 L4.9998,17.5295 L7.54063803,20 L9.85279456,17.5285 L9.13221379,16.8235 L8.04900508,18 L8.04900508,16.1746459 L9.91479093,14.2075 C10.4625949,14.7065 11.1892737,15.0185 11.9952265,15.0185 C12.7981303,15.0185 13.5237927,14.7075 14.0705804,14.2105 L16.0081307,16.163 L16,18 L14.8694189,16.8265 L14.1468054,17.5295 L16.5212686,20 L18.9998,17.5285 L18.2792192,16.8235 Z" id="path-1"></path>
    </defs>
    <g id="notification" stroke="none" stroke-width="1" fill="none" fill-rule="evenodd">
        <g id="notification1" transform="translate(-1421.000000, -259.000000)">
            <g id="Controls-/-Move-Switch-Yard-/-16px" transform="translate(1416.000000, 255.000000)">
                <mask id="mask-2" fill="white">
                    <use xlink:href="#path-1"></use>
                </mask>
                <use id="Mask" fill="#303030" fill-rule="evenodd" xlink:href="#path-1"></use>
                <g id="*Style*-/-Icon-/-Tint-/-Actionable---Dark-Background-/-Interactive" mask="url(#mask-2)" fill="#FFFFFF" fill-rule="evenodd">
                    <rect id="Light-Theme" x="0" y="0" width="24" height="24"></rect>
                </g>
            </g>
        </g>
    </g>
</svg>