<?xml version="1.0" encoding="UTF-8"?>
<svg width="24px" height="24px" viewBox="0 0 24 24" version="1.1" xmlns="http://www.w3.org/2000/svg" xmlns:xlink="http://www.w3.org/1999/xlink">
    <!-- Generator: Sketch 54 (76480) - https://sketchapp.com -->
    <title>dashboard</title>
    <desc>Created with Sketch.</desc>
    <defs>
        <path d="M0,0 L6,0 L6,6 L0,6 L0,0 Z M0,9 L6,9 L6,15 L0,15 L0,9 Z M0,18 L6,18 L6,24 L0,24 L0,18 Z M9,0 L15,0 L15,6 L9,6 L9,0 Z M9,9 L15,9 L15,15 L9,15 L9,9 Z M9,18 L15,18 L15,24 L9,24 L9,18 Z M18,0 L24,0 L24,6 L18,6 L18,0 Z M18,9 L24,9 L24,15 L18,15 L18,9 Z M18,18 L24,18 L24,24 L18,24 L18,18 Z" id="path-1"/>
    </defs>
    <g id="页面1" stroke="none" stroke-width="1" fill="none" fill-rule="evenodd">
        <g id="Frame-collapse" transform="translate(-28.000000, -84.000000)">
            <g id="dashboard" transform="translate(28.000000, 84.000000)">
                <mask id="mask-2" fill="white">
                    <use xlink:href="#path-1"/>
                </mask>
                <use id="Mask" fill="#FFFFFF" xlink:href="#path-1"/>
            </g>
        </g>
    </g>
</svg>